<?xml version="1.0" encoding="UTF-8" standalone="no"?>
<!-- Created with Inkscape (http://www.inkscape.org/) -->

<svg
   width="4in"
   height="4in"
   viewBox="0 0 101.6 101.6"
   version="1.1"
   id="svg8"
   inkscape:version="1.1.1 (3bf5ae0d25, 2021-09-20)"
   sodipodi:docname="BTT_Lago Vista.BradRebuild.svg"
   inkscape:export-filename="C:\Users\bclark\Desktop\BTT_AUSTIN_RUY_LOGO.BradRebuild.png"
   inkscape:export-xdpi="300"
   inkscape:export-ydpi="300"
   xmlns:inkscape="http://www.inkscape.org/namespaces/inkscape"
   xmlns:sodipodi="http://sodipodi.sourceforge.net/DTD/sodipodi-0.dtd"
   xmlns:xlink="http://www.w3.org/1999/xlink"
   xmlns="http://www.w3.org/2000/svg"
   xmlns:svg="http://www.w3.org/2000/svg"
   xmlns:rdf="http://www.w3.org/1999/02/22-rdf-syntax-ns#"
   xmlns:cc="http://creativecommons.org/ns#"
   xmlns:dc="http://purl.org/dc/elements/1.1/">
  <defs
     id="defs2">
    <inkscape:path-effect
       simplify_just_coalesce="false"
       simplify_individual_paths="false"
       helper_size="5"
       smooth_angles="0"
       threshold="0.0056"
       steps="1"
       is_visible="false"
       id="path-effect885"
       effect="simplify" />
    <inkscape:path-effect
       effect="simplify"
       id="path-effect836"
       is_visible="false"
       steps="1"
       threshold="0.0056"
       smooth_angles="0"
       helper_size="5"
       simplify_individual_paths="false"
       simplify_just_coalesce="false" />
    <inkscape:path-effect
       effect="simplify"
       id="path-effect832"
       is_visible="true"
       steps="1"
       threshold="0.0018"
       smooth_angles="0"
       helper_size="5"
       simplify_individual_paths="false"
       simplify_just_coalesce="false" />
    <inkscape:path-effect
       effect="interpolate_points"
       id="path-effect830"
       is_visible="true"
       interpolator_type="CubicBezierFit" />
    <inkscape:path-effect
       effect="simplify"
       id="path-effect828"
       is_visible="true"
       steps="1"
       threshold="0.0009"
       smooth_angles="20"
       helper_size="5"
       simplify_individual_paths="false"
       simplify_just_coalesce="false" />
    <inkscape:path-effect
       effect="simplify"
       id="path-effect836-4"
       is_visible="false"
       steps="1"
       threshold="0.0056"
       smooth_angles="0"
       helper_size="5"
       simplify_individual_paths="false"
       simplify_just_coalesce="false" />
    <inkscape:path-effect
       effect="simplify"
       id="path-effect836-8"
       is_visible="false"
       steps="1"
       threshold="0.0056"
       smooth_angles="0"
       helper_size="5"
       simplify_individual_paths="false"
       simplify_just_coalesce="false" />
    <inkscape:path-effect
       simplify_just_coalesce="false"
       simplify_individual_paths="false"
       helper_size="5"
       smooth_angles="0"
       threshold="0.0056"
       steps="1"
       is_visible="false"
       id="path-effect885-6"
       effect="simplify" />
    <inkscape:path-effect
       simplify_just_coalesce="false"
       simplify_individual_paths="false"
       helper_size="5"
       smooth_angles="0"
       threshold="0.0056"
       steps="1"
       is_visible="false"
       id="path-effect885-5"
       effect="simplify" />
  </defs>
  <sodipodi:namedview
     id="base"
     pagecolor="#ffffff"
     bordercolor="#666666"
     borderopacity="1.0"
     inkscape:pageopacity="0.0"
     inkscape:pageshadow="2"
     inkscape:zoom="1.7742252"
     inkscape:cx="309.99447"
     inkscape:cy="172.75147"
     inkscape:document-units="mm"
     inkscape:current-layer="layer6"
     showgrid="false"
     inkscape:window-width="1920"
     inkscape:window-height="1017"
     inkscape:window-x="-8"
     inkscape:window-y="-8"
     inkscape:window-maximized="1"
     showguides="true"
     inkscape:guide-bbox="true"
     inkscape:snap-nodes="false"
     units="in"
     inkscape:pagecheckerboard="0">
    <sodipodi:guide
       position="50.207925,73.890909"
       orientation="1,0"
       id="guide908"
       inkscape:locked="false" />
    <sodipodi:guide
       position="-2.6087911,43.973328"
       orientation="0,1"
       id="guide910"
       inkscape:locked="false" />
    <sodipodi:guide
       position="-4.9551881,12.20219"
       orientation="0,1"
       id="guide1125"
       inkscape:locked="false" />
    <sodipodi:guide
       position="-10.661566,45.929443"
       orientation="0,1"
       id="guide1127"
       inkscape:locked="false" />
    <sodipodi:guide
       position="-42.565326,102.9264"
       orientation="0.70710678,-0.70710678"
       id="guide23820" />
    <sodipodi:guide
       position="33.842263,22.680952"
       orientation="0,-1"
       id="guide23822" />
    <sodipodi:guide
       position="75.001793,45.929443"
       orientation="1,0"
       id="guide25916" />
    <sodipodi:guide
       position="-13.263983,58.793511"
       orientation="0,-1"
       id="guide38780" />
    <sodipodi:guide
       position="-3.4968682,19.966216"
       orientation="0,-1"
       id="guide43200" />
    <sodipodi:guide
       position="40.846502,17.687831"
       orientation="0,-1"
       id="guide53638" />
  </sodipodi:namedview>
  <metadata
     id="metadata5">
    <rdf:RDF>
      <cc:Work
         rdf:about="">
        <dc:format>image/svg+xml</dc:format>
        <dc:type
           rdf:resource="http://purl.org/dc/dcmitype/StillImage" />
      </cc:Work>
    </rdf:RDF>
  </metadata>
  <g
     inkscape:groupmode="layer"
     id="layer5"
     inkscape:label="textPAths"
     style="display:inline"
     transform="translate(-56.057082,-42.381164)">
    <path
       style="display:inline;fill:none;fill-opacity:0.29081636;stroke:none;stroke-width:0.08030915;stroke-opacity:1"
       inkscape:path-effect="#path-effect885-5"
       inkscape:original-d="m 110.03244,51.670327 -2.36204,-0.184382 -1.17119,0.02258 -1.1712,0.02259 -1.09438,0.06502 -1.09438,0.06504 -1.34508,0.163063 -1.34508,0.163073 -1.533355,0.297073 -1.533347,0.297074 -1.136292,0.305966 -1.136291,0.305953 -1.001232,0.318066 -1.001221,0.318066 -1.388397,0.544218 -1.388397,0.544219 -0.915776,0.422088 -0.91579,0.422084 -1.22786,0.65344 -1.227847,0.653444 -1.110077,0.688658 -1.110078,0.688658 -0.85967,0.594063 -0.859672,0.594041 -1.640043,1.346929 -1.640028,1.346917 -0.873397,0.848833 -0.873387,0.848831 -0.765911,0.818171 -0.765915,0.818163 -1.118122,1.391287 -1.118125,1.391278 -0.576472,0.826102 -0.576474,0.826096 -0.782896,1.269202 -0.782905,1.269208 -0.49138,0.928525 -0.491375,0.928531 -0.50353,1.06359 -0.50354,1.06359 -0.56554,1.455875 -0.565547,1.455879 -0.401676,1.294358 -0.401685,1.294358 -0.325324,1.381849 -0.325317,1.381842 -0.192127,0.99066 -0.192112,0.99065 -0.233468,2.599586 -0.233474,2.599578 0.01251,1.009039 0.01252,1.009031 0.07388,1.41771 0.0739,1.41768 0.164623,1.34522 0.164606,1.34524 0.297075,1.53334 0.297078,1.53336 0.305962,1.13627 0.305957,1.13631 0.318064,1.00121 0.318065,1.00124 0.54422,1.38838 0.544215,1.38842 0.422059,0.91579 0.422055,0.91578 0.653474,1.22786 0.653474,1.22783 0.688654,1.11008 0.688658,1.11007 0.594037,0.85969 0.594033,0.85968 1.346927,1.64005 1.346913,1.64001 0.848842,0.87339 0.848836,0.87341 0.818159,0.76592 0.818168,0.76593 1.391286,1.11812 1.391277,1.11809 0.826103,0.57648 0.826092,0.57649 1.269207,0.78289 1.269212,0.7829 0.92852,0.49137 0.928536,0.49139 1.063588,0.50353 1.063592,0.50354 1.455871,0.56553 1.455884,0.56555 1.29436,0.40169 1.294355,0.40167 1.381863,0.32534 1.381836,0.32531 0.990659,0.19211 0.990647,0.19213 2.59958,0.23348 2.59958,0.23346 1.00902,-0.0125 1.00904,-0.0125 1.41769,-0.0739 1.4177,-0.0739 1.34522,-0.16461 1.34522,-0.16462 1.53336,-0.29707 1.53334,-0.29709 1.13629,-0.30594 1.1363,-0.30597 1.00122,-0.31807 1.00123,-0.31806 1.38839,-0.54422 1.38839,-0.54421 0.9156,-0.42007 0.91558,-0.42007 1.56826,-0.8523 1.56825,-0.85231 0.94153,-0.6079 0.94156,-0.60789 0.99086,-0.70818 0.99088,-0.70816 1.61759,-1.37379 1.61761,-1.37378 0.73772,-0.74007 0.73773,-0.74006 0.87544,-0.9696 0.87543,-0.96959 0.86177,-1.09178 0.86177,-1.09178 0.57852,-0.82591 0.57852,-0.82591 0.78289,-1.26921 0.78292,-1.26919 0.49136,-0.92853 0.49139,-0.92854 0.50352,-1.06359 0.50355,-1.06358 0.56553,-1.45589 0.56555,-1.45587 0.40168,-1.29437 0.40167,-1.29435 0.32534,-1.38185 0.32531,-1.38185 0.19211,-0.99064 0.19213,-0.99066 0.23348,-2.59957 0.23347,-2.59959 -0.0125,-1.00904 -0.0125,-1.009032 -0.0739,-1.417697 -0.0739,-1.417708 -0.16461,-1.34522 -0.16462,-1.345218 -0.29707,-1.533353 -0.29708,-1.533342 -0.30596,-1.136297 -0.30596,-1.136292 -0.31805,-1.001231 -0.31807,-1.00122 -0.54422,-1.388395 -0.54423,-1.388396 -0.42208,-0.915774 -0.42209,-0.915791 -0.65344,-1.227857 -0.65345,-1.227853 -0.68865,-1.110072 -0.68867,-1.110077 -0.59404,-0.859671 -0.59405,-0.85968 -1.34693,-1.640037 -1.34691,-1.640025 -0.84884,-0.873401 -0.84883,-0.873391 -0.81817,-0.765907 -0.81816,-0.765917 -1.3913,-1.118122 -1.39127,-1.11812 -0.8261,-0.576476 -0.82609,-0.576471 -1.26921,-0.782902 -1.26921,-0.782902 -0.92852,-0.491378 -0.92854,-0.491381 -1.06359,-0.50353 -1.06358,-0.503538 -1.45589,-0.565539 -1.45586,-0.56554 -1.29436,-0.401679 -1.29436,-0.401688 -1.38182,-0.325743 -1.38179,-0.325734 -0.99223,-0.174634 -0.99222,-0.174633 -0.39725,-0.06576 -0.39725,-0.06577 z"
       d="m 110.03244,51.670327 -2.36204,-0.184382 -1.17119,0.02258 -1.1712,0.02259 -1.09438,0.06502 -1.09438,0.06504 -1.34508,0.163063 -1.34508,0.163073 -1.533355,0.297073 -1.533347,0.297074 -1.136292,0.305966 -1.136291,0.305953 -1.001232,0.318066 -1.001221,0.318066 -1.388397,0.544218 -1.388397,0.544219 -0.915776,0.422088 -0.91579,0.422084 -1.22786,0.65344 -1.227847,0.653444 -1.110077,0.688658 -1.110078,0.688658 -0.85967,0.594063 -0.859672,0.594041 -1.640043,1.346929 -1.640028,1.346917 -0.873397,0.848833 -0.873387,0.848831 -0.765911,0.818171 -0.765915,0.818163 -1.118122,1.391287 -1.118125,1.391278 -0.576472,0.826102 -0.576474,0.826096 -0.782896,1.269202 -0.782905,1.269208 -0.49138,0.928525 -0.491375,0.928531 -0.50353,1.06359 -0.50354,1.06359 -0.56554,1.455875 -0.565547,1.455879 -0.401676,1.294358 -0.401685,1.294358 -0.325324,1.381849 -0.325317,1.381842 -0.192127,0.99066 -0.192112,0.99065 -0.233468,2.599586 -0.233474,2.599578 0.01251,1.009039 0.01252,1.009031 0.07388,1.41771 0.0739,1.41768 0.164623,1.34522 0.164606,1.34524 0.297075,1.53334 0.297078,1.53336 0.305962,1.13627 0.305957,1.13631 0.318064,1.00121 0.318065,1.00124 0.54422,1.38838 0.544215,1.38842 0.422059,0.91579 0.422055,0.91578 0.653474,1.22786 0.653474,1.22783 0.688654,1.11008 0.688658,1.11007 0.594037,0.85969 0.594033,0.85968 1.346927,1.64005 1.346913,1.64001 0.848842,0.87339 0.848836,0.87341 0.818159,0.76592 0.818168,0.76593 1.391286,1.11812 1.391277,1.11809 0.826103,0.57648 0.826092,0.57649 1.269207,0.78289 1.269212,0.7829 0.92852,0.49137 0.928536,0.49139 1.063588,0.50353 1.063592,0.50354 1.455871,0.56553 1.455884,0.56555 1.29436,0.40169 1.294355,0.40167 1.381863,0.32534 1.381836,0.32531 0.990659,0.19211 0.990647,0.19213 2.59958,0.23348 2.59958,0.23346 1.00902,-0.0125 1.00904,-0.0125 1.41769,-0.0739 1.4177,-0.0739 1.34522,-0.16461 1.34522,-0.16462 1.53336,-0.29707 1.53334,-0.29709 1.13629,-0.30594 1.1363,-0.30597 1.00122,-0.31807 1.00123,-0.31806 1.38839,-0.54422 1.38839,-0.54421 0.9156,-0.42007 0.91558,-0.42007 1.56826,-0.8523 1.56825,-0.85231 0.94153,-0.6079 0.94156,-0.60789 0.99086,-0.70818 0.99088,-0.70816 1.61759,-1.37379 1.61761,-1.37378 0.73772,-0.74007 0.73773,-0.74006 0.87544,-0.9696 0.87543,-0.96959 0.86177,-1.09178 0.86177,-1.09178 0.57852,-0.82591 0.57852,-0.82591 0.78289,-1.26921 0.78292,-1.26919 0.49136,-0.92853 0.49139,-0.92854 0.50352,-1.06359 0.50355,-1.06358 0.56553,-1.45589 0.56555,-1.45587 0.40168,-1.29437 0.40167,-1.29435 0.32534,-1.38185 0.32531,-1.38185 0.19211,-0.99064 0.19213,-0.99066 0.23348,-2.59957 0.23347,-2.59959 -0.0125,-1.00904 -0.0125,-1.009032 -0.0739,-1.417697 -0.0739,-1.417708 -0.16461,-1.34522 -0.16462,-1.345218 -0.29707,-1.533353 -0.29708,-1.533342 -0.30596,-1.136297 -0.30596,-1.136292 -0.31805,-1.001231 -0.31807,-1.00122 -0.54422,-1.388395 -0.54423,-1.388396 -0.42208,-0.915774 -0.42209,-0.915791 -0.65344,-1.227857 -0.65345,-1.227853 -0.68865,-1.110072 -0.68867,-1.110077 -0.59404,-0.859671 -0.59405,-0.85968 -1.34693,-1.640037 -1.34691,-1.640025 -0.84884,-0.873401 -0.84883,-0.873391 -0.81817,-0.765907 -0.81816,-0.765917 -1.3913,-1.118122 -1.39127,-1.11812 -0.8261,-0.576476 -0.82609,-0.576471 -1.26921,-0.782902 -1.26921,-0.782902 -0.92852,-0.491378 -0.92854,-0.491381 -1.06359,-0.50353 -1.06358,-0.503538 -1.45589,-0.565539 -1.45586,-0.56554 -1.29436,-0.401679 -1.29436,-0.401688 -1.38182,-0.325743 -1.38179,-0.325734 -0.99223,-0.174634 -0.99222,-0.174633 -0.39725,-0.06576 -0.39725,-0.06577 z"
       id="path853-9"
       inkscape:connector-curvature="0" />
    <path
       style="display:inline;fill:#ffffff;fill-opacity:0.21808514;stroke:none;stroke-width:0.07031238;stroke-opacity:1"
       inkscape:path-effect="#path-effect885-6"
       inkscape:original-d="m 71.786849,103.08774 -0.560189,-1.99728 -0.06564,-0.34636 -0.06564,-0.34638 -0.155443,-0.86826 -0.155444,-0.86826 -0.148638,-1.23403 -0.148627,-1.23405 -0.05984,-1.18504 -0.05984,-1.18506 0.02618,-1.367184 0.02618,-1.36719 0.09342,-1.026039 0.0934,-1.026033 0.124123,-0.911354 0.124126,-0.911346 0.261111,-1.279245 0.261095,-1.279243 0.224941,-0.852788 0.224939,-0.852796 0.499887,-1.480606 0.499877,-1.480613 0.383057,-0.903358 0.38305,-0.903355 0.462164,-0.960956 0.462171,-0.960958 0.942258,-1.60141 0.942273,-1.601421 0.527678,-0.747382 0.52766,-0.747385 0.704984,-0.900606 0.704999,-0.900611 0.812418,-0.907151 0.812426,-0.907154 0.625602,-0.622931 0.625601,-0.62293 0.977314,-0.865747 0.977307,-0.865744 0.727178,-0.563166 0.727203,-0.563173 0.841866,-0.593916 0.841865,-0.593922 1.170936,-0.706264 1.170936,-0.706261 1.056202,-0.54069 1.056203,-0.54069 1.143128,-0.487955 1.14312,-0.487953 0.825683,-0.314359 0.825675,-0.314355 2.20729,-0.591442 2.207282,-0.591439 0.872244,-0.1406 0.87223,-0.140596 1.23396,-0.148983 1.23394,-0.148981 1.18505,-0.05985 1.18504,-0.05985 1.36719,0.02617 1.3672,0.02618 1.02603,0.09342 1.02603,0.09341 0.91136,0.124123 0.91136,0.124123 1.27923,0.261106 1.27924,0.261103 0.85326,0.226671 0.85326,0.226673 1.15715,0.379405 1.15716,0.379405 1.06084,0.427456 1.06085,0.427454 0.83066,0.383423 0.83066,0.383417 1.61674,0.915735 1.61673,0.915731 0.88073,0.601127 0.88073,0.601132 0.78342,0.590798 0.78342,0.590802 1.17321,1.03231 1.17321,1.032303 0.62119,0.626074 0.62121,0.626064 0.86574,0.977309 0.86574,0.977305 0.56317,0.727185 0.56317,0.727195 0.59393,0.841865 0.59391,0.841868 0.70627,1.170934 0.70625,1.170935 0.5407,1.056201 0.54069,1.056206 0.48796,1.143127 0.48795,1.143115 0.31435,0.82568 0.31436,0.825675 0.59144,2.207282 0.59144,2.207284 0.1406,0.872234 0.14059,0.872242 0.14899,1.233946 0.14897,1.233958 0.0599,1.185042 0.0599,1.185044 -0.0262,1.367204 -0.0262,1.36719 -0.0934,1.02603 -0.0934,1.02605 -0.12412,0.91135 -0.12413,0.91134 -0.2611,1.27925 -0.2611,1.27925 -0.22494,0.85278 -0.22494,0.8528 -0.49987,1.4806 -0.49988,1.48061 -0.38306,0.90336 -0.38307,0.90336 -0.46216,0.96096 -0.46217,0.96096 -0.94227,1.60141 -0.94227,1.60142 -0.52766,0.74737 -0.52767,0.74739 -0.70499,0.90061 -0.70498,0.9006 -0.81243,0.90716 -0.81243,0.90715 -0.6256,0.62293 -0.6256,0.62294 -0.97732,0.86575 -0.97729,0.86574 -0.72719,0.56316 -0.7272,0.56317 -0.84187,0.59392 -0.84185,0.59393 -1.17095,0.70626 -1.17093,0.70627 -1.05621,0.54068 -1.0562,0.54069 -1.14312,0.48796 -1.14313,0.48795 -0.82567,0.31436 -0.82569,0.31435 -2.20728,0.59144 -2.20729,0.59144 -0.87223,0.1406 -0.87225,0.1406 -1.23394,0.14898 -1.23395,0.14899 -1.18505,0.0599 -1.18504,0.0599 -1.36719,-0.0262 -1.36719,-0.0262 -1.02604,-0.0934 -1.02604,-0.0934 -0.91136,-0.12412 -0.91134,-0.12413 -1.279241,-0.26109 -1.279253,-0.26111 -0.852787,-0.22494 -0.852788,-0.22494 -1.480604,-0.49987 -1.480614,-0.49988 -0.903365,-0.38306 -0.903347,-0.38305 -0.960963,-0.46216 -0.96095,-0.46218 -1.601412,-0.94227 -1.60143,-0.94226 -0.747372,-0.52768 -0.747386,-0.52766 -0.900607,-0.70499 -0.900609,-0.70499 -0.907152,-0.81241 -0.907153,-0.81243 -0.622933,-0.62562 -0.622939,-0.62559 -0.865736,-0.97731 -0.865752,-0.9773 -0.563169,-0.72719 -0.563171,-0.72719 -0.593907,-0.84187 -0.593922,-0.84187 -0.706264,-1.17093 -0.706267,-1.17094 -0.539387,-1.05656 -0.539363,-1.05655 -0.383238,-0.88002 -0.383231,-0.88001 -0.371485,-0.95596 -0.371506,-0.95595 z"
       d="m 71.786849,103.08774 -0.560189,-1.99728 -0.06564,-0.34636 -0.06564,-0.34638 -0.155443,-0.86826 -0.155444,-0.86826 -0.148638,-1.23403 -0.148627,-1.23405 -0.05984,-1.18504 -0.05984,-1.18506 0.02618,-1.367184 0.02618,-1.36719 0.09342,-1.026039 0.0934,-1.026033 0.124123,-0.911354 0.124126,-0.911346 0.261111,-1.279245 0.261095,-1.279243 0.224941,-0.852788 0.224939,-0.852796 0.499887,-1.480606 0.499877,-1.480613 0.383057,-0.903358 0.38305,-0.903355 0.462164,-0.960956 0.462171,-0.960958 0.942258,-1.60141 0.942273,-1.601421 0.527678,-0.747382 0.52766,-0.747385 0.704984,-0.900606 0.704999,-0.900611 0.812418,-0.907151 0.812426,-0.907154 0.625602,-0.622931 0.625601,-0.62293 0.977314,-0.865747 0.977307,-0.865744 0.727178,-0.563166 0.727203,-0.563173 0.841866,-0.593916 0.841865,-0.593922 1.170936,-0.706264 1.170936,-0.706261 1.056202,-0.54069 1.056203,-0.54069 1.143128,-0.487955 1.14312,-0.487953 0.825683,-0.314359 0.825675,-0.314355 2.20729,-0.591442 2.207282,-0.591439 0.872244,-0.1406 0.87223,-0.140596 1.23396,-0.148983 1.23394,-0.148981 1.18505,-0.05985 1.18504,-0.05985 1.36719,0.02617 1.3672,0.02618 1.02603,0.09342 1.02603,0.09341 0.91136,0.124123 0.91136,0.124123 1.27923,0.261106 1.27924,0.261103 0.85326,0.226671 0.85326,0.226673 1.15715,0.379405 1.15716,0.379405 1.06084,0.427456 1.06085,0.427454 0.83066,0.383423 0.83066,0.383417 1.61674,0.915735 1.61673,0.915731 0.88073,0.601127 0.88073,0.601132 0.78342,0.590798 0.78342,0.590802 1.17321,1.03231 1.17321,1.032303 0.62119,0.626074 0.62121,0.626064 0.86574,0.977309 0.86574,0.977305 0.56317,0.727185 0.56317,0.727195 0.59393,0.841865 0.59391,0.841868 0.70627,1.170934 0.70625,1.170935 0.5407,1.056201 0.54069,1.056206 0.48796,1.143127 0.48795,1.143115 0.31435,0.82568 0.31436,0.825675 0.59144,2.207282 0.59144,2.207284 0.1406,0.872234 0.14059,0.872242 0.14899,1.233946 0.14897,1.233958 0.0599,1.185042 0.0599,1.185044 -0.0262,1.367204 -0.0262,1.36719 -0.0934,1.02603 -0.0934,1.02605 -0.12412,0.91135 -0.12413,0.91134 -0.2611,1.27925 -0.2611,1.27925 -0.22494,0.85278 -0.22494,0.8528 -0.49987,1.4806 -0.49988,1.48061 -0.38306,0.90336 -0.38307,0.90336 -0.46216,0.96096 -0.46217,0.96096 -0.94227,1.60141 -0.94227,1.60142 -0.52766,0.74737 -0.52767,0.74739 -0.70499,0.90061 -0.70498,0.9006 -0.81243,0.90716 -0.81243,0.90715 -0.6256,0.62293 -0.6256,0.62294 -0.97732,0.86575 -0.97729,0.86574 -0.72719,0.56316 -0.7272,0.56317 -0.84187,0.59392 -0.84185,0.59393 -1.17095,0.70626 -1.17093,0.70627 -1.05621,0.54068 -1.0562,0.54069 -1.14312,0.48796 -1.14313,0.48795 -0.82567,0.31436 -0.82569,0.31435 -2.20728,0.59144 -2.20729,0.59144 -0.87223,0.1406 -0.87225,0.1406 -1.23394,0.14898 -1.23395,0.14899 -1.18505,0.0599 -1.18504,0.0599 -1.36719,-0.0262 -1.36719,-0.0262 -1.02604,-0.0934 -1.02604,-0.0934 -0.91136,-0.12412 -0.91134,-0.12413 -1.279241,-0.26109 -1.279253,-0.26111 -0.852787,-0.22494 -0.852788,-0.22494 -1.480604,-0.49987 -1.480614,-0.49988 -0.903365,-0.38306 -0.903347,-0.38305 -0.960963,-0.46216 -0.96095,-0.46218 -1.601412,-0.94227 -1.60143,-0.94226 -0.747372,-0.52768 -0.747386,-0.52766 -0.900607,-0.70499 -0.900609,-0.70499 -0.907152,-0.81241 -0.907153,-0.81243 -0.622933,-0.62562 -0.622939,-0.62559 -0.865736,-0.97731 -0.865752,-0.9773 -0.563169,-0.72719 -0.563171,-0.72719 -0.593907,-0.84187 -0.593922,-0.84187 -0.706264,-1.17093 -0.706267,-1.17094 -0.539387,-1.05656 -0.539363,-1.05655 -0.383238,-0.88002 -0.383231,-0.88001 -0.371485,-0.95596 -0.371506,-0.95595 z"
       id="path853-2"
       inkscape:connector-curvature="0" />
  </g>
  <g
     inkscape:label="Layer 1"
     inkscape:groupmode="layer"
     id="layer1"
     transform="translate(-56.057082,-139.38116)"
     style="display:inline">
    <path
       id="path1042"
       style="display:inline;opacity:1;fill:#010101;fill-opacity:1;fill-rule:nonzero;stroke:#000000;stroke-width:0.08829288;stroke-opacity:1"
       d="m 115.2442,223.80659 1.24846,-0.36027 1.24845,-0.36027 0.91878,-0.3381 0.91879,-0.33807 0.80596,-0.33806 0.80596,-0.33807 1.10994,-0.55428 1.10995,-0.55426 0.72742,-0.41791 0.72743,-0.4179 0.96879,-0.63283 0.96879,-0.63283 0.86857,-0.65325 0.86858,-0.65324 0.66813,-0.55622 0.66813,-0.55621 1.25873,-1.23814 1.25871,-1.23812 0.66055,-0.76835 0.66053,-0.76837 0.57376,-0.73494 0.57376,-0.73495 0.82296,-1.23605 0.82296,-1.23604 0.41619,-0.72742 0.4162,-0.72742 0.55427,-1.10995 0.55427,-1.10995 0.33807,-0.80595 0.33806,-0.80597 0.33808,-0.91878 0.33809,-0.91879 0.36027,-1.24845 0.36027,-1.24844 0.23651,-1.10242 0.23652,-1.10242 0.16674,-1.16924 0.16673,-1.16922 0.0855,-0.83518 0.0855,-0.83516 v -2.17144 -2.17143 l -0.0855,-0.83516 -0.0855,-0.83517 -0.16673,-1.16923 -0.16674,-1.16923 -0.23652,-1.10242 -0.23651,-1.10242 -0.36027,-1.24845 -0.36027,-1.24845 -0.33809,-0.91878 -0.33808,-0.91878 -0.33806,-0.80597 -0.33807,-0.80596 -0.55427,-1.10994 -0.55427,-1.10995 -0.41791,-0.72742 -0.4179,-0.72742 -0.63282,-0.9688 -0.63284,-0.96879 -0.65324,-0.86857 -0.65325,-0.86858 -0.55622,-0.66813 -0.55621,-0.66813 -1.23813,-1.25872 -1.23813,-1.25871 -0.76835,-0.66055 -0.76836,-0.66053 -0.73495,-0.57377 -0.73494,-0.57378 -1.23606,-0.82295 -1.23603,-0.82295 -0.72743,-0.4162 -0.72742,-0.4162 -1.10995,-0.55426 -1.10994,-0.55427 -0.80596,-0.33807 -0.80596,-0.33806 -0.91879,-0.33809 -0.91878,-0.33809 -1.24845,-0.36027 -1.24846,-0.36027 -1.10241,-0.23651 -1.10243,-0.23651 -1.16923,-0.16674 -1.16923,-0.16673 -0.83517,-0.0855 -0.83516,-0.0855 h -2.17143 -2.17143 l -0.83516,0.0855 -0.83517,0.0855 -1.16922,0.16673 -1.16924,0.16674 -1.102421,0.23651 -1.10242,0.23651 -1.248449,0.36027 -1.248448,0.36027 -0.918781,0.33809 -0.91878,0.33809 -0.805967,0.33806 -0.805957,0.33807 -1.109947,0.55427 -1.109948,0.55426 -0.727416,0.4162 -0.727424,0.4162 -1.236043,0.82295 -1.236052,0.82295 -0.734945,0.57378 -0.734942,0.57377 -0.768357,0.66053 -0.768356,0.66055 -1.238127,1.25871 -1.238134,1.25872 -0.556213,0.66813 -0.556222,0.66813 -0.653245,0.86858 -0.653245,0.86857 -0.63283,0.96879 -0.632829,0.9688 -0.417902,0.72742 -0.417902,0.72742 -0.554271,1.10995 -0.554272,1.10994 -0.338065,0.80596 -0.338064,0.80597 -0.338081,0.91878 -0.338089,0.91878 -0.360271,1.24845 -0.360267,1.24845 -0.236515,1.10242 -0.236515,1.10242 -0.166732,1.16923 -0.166733,1.16923 -0.08547,0.83517 -0.08547,0.83516 v 2.17143 2.17144 l 0.08547,0.83516 0.08547,0.83518 0.166733,1.16922 0.166732,1.16924 0.236515,1.10242 0.236515,1.10242 0.360267,1.24844 0.360271,1.24845 0.338089,0.91879 0.338081,0.91878 0.338064,0.80597 0.338065,0.80595 0.554272,1.10995 0.554271,1.10995 0.417902,0.72742 0.417902,0.72742 0.632829,0.9688 0.63283,0.96878 0.653245,0.86859 0.653245,0.86856 0.556222,0.66813 0.556213,0.66815 1.238134,1.25872 1.238127,1.2587 0.768356,0.66055 0.768357,0.66053 0.734942,0.57376 0.734945,0.57377 1.236052,0.82295 1.236043,0.82297 0.727424,0.41619 0.727416,0.4162 1.109948,0.55426 1.109947,0.55428 0.805957,0.33807 0.805967,0.33806 0.91878,0.33807 0.918781,0.3381 1.248448,0.36027 c 0.0252,-0.0252 0.07572,-0.5248 0.152972,-1.03056 0.10936,-0.71594 0.13027,-1.33995 0.0944,-2.81787 -0.0661,-2.72541 -0.27179,-3.66226 -1.82201,-8.29953 -1.31347,-3.9291 -1.72968,-5.822 -1.78147,-8.10213 l -0.0186,-0.81796 -0.65568,-0.49351 c -1.96,-1.47522 -3.77323,-3.74177 -5.01391,-6.26744 -0.65358,-1.33051 -0.91029,-1.69825 -2.0776,-2.97625 -1.01705,-1.11349 -1.22438,-1.45115 -1.62,-2.6383 -0.87158,-2.61546 -1.12267,-5.70303 -0.74648,-9.17922 0.13469,-1.24452 0.1734,-2.04333 0.14268,-2.94404 -0.0388,-1.13885 -0.0741,-1.34723 -0.4483,-2.64878 -0.48596,-1.69029 -0.62272,-2.56632 -0.51225,-3.28125 0.0438,-0.28344 0.0614,-0.65909 0.039,-0.83478 -0.084,-0.66085 0.41813,-1.19756 1.02461,-1.09509 0.30457,0.0515 0.35555,0.0353 0.40776,-0.12922 0.0933,-0.29409 0.59333,-0.49374 0.95699,-0.38213 0.25532,0.0784 0.34779,0.0616 0.64209,-0.11657 0.18909,-0.11447 0.45687,-0.20832 0.59506,-0.20857 0.26348,-4.4e-4 0.76412,0.24781 0.76412,0.37896 0,0.042 0.13381,-0.006 0.29737,-0.10733 0.36287,-0.22427 0.85376,-0.23724 1.10822,-0.0293 0.11288,0.0923 0.20806,0.29679 0.23623,0.50768 0.0895,0.67019 0.288142,1.09498 0.612492,1.21227 0.38265,0.13836 0.634888,0.31204 0.705528,0.76267 0.0276,0.17637 0.01435,0.61431 0.115185,0.97319 0.370654,1.29856 0.0337,2.36345 -0.74394,3.29669 -0.89787,1.07223 -0.9296,1.21077 -0.57917,2.52874 0.24446,0.9194 0.27877,1.1891 0.27877,2.19096 0,1.35311 0.10905,1.83867 0.87385,3.89103 0.63715,1.7098 0.88658,2.68664 0.92903,3.63838 l 0.0326,0.73091 0.83009,0.64006 c 0.98539,0.7598 1.94226,1.77203 2.38899,2.52718 0.26165,0.44229 0.63795,1.35547 0.82366,1.99882 0.0175,0.0607 0.16224,0.11114 0.32159,0.11209 0.15934,9.5e-4 0.71972,0.059 1.24529,0.12891 1.29994,0.17301 1.75038,0.39349 2.6985,1.32082 0.41832,0.40915 0.876663,0.80403 1.018563,0.87752 0.23722,0.12286 0.2773,0.11988 0.49754,-0.037 0.13175,-0.0938 0.43204,-0.25308 0.66731,-0.35393 0.23527,-0.10085 0.45775,-0.23052 0.4944,-0.28816 0.1,-0.1572 0.0828,-1.66697 -0.0247,-2.168 -0.0517,-0.24115 -0.23779,-0.67023 -0.41351,-0.95349 -0.9081,-1.46398 -0.97176,-1.7768 -0.54499,-2.67821 0.29307,-0.61901 0.29235,-0.57728 0.0326,-1.88931 -0.13249,-0.66934 -0.14038,-0.88501 -0.0533,-1.45683 0.386,-2.53529 2.89525,-4.29859 5.88156,-4.13309 1.48421,0.0823 2.41315,0.47635 3.24777,1.37783 1.06774,1.15329 1.32983,1.92508 1.28801,3.79283 -0.0289,1.28972 -0.0265,1.30892 0.20018,1.60828 0.12618,0.16664 0.2796,0.45605 0.34094,0.64313 0.20409,0.62252 0.12941,0.82731 -1.35713,3.72132 -0.33577,0.65367 -0.49347,1.29202 -0.49347,1.99753 0,0.40823 0.0176,0.4393 0.37525,0.66291 0.20638,0.12903 0.51813,0.38778 0.69278,0.57501 0.17464,0.18722 0.36682,0.34041 0.42706,0.34041 0.0602,0 0.32638,-0.2186 0.59143,-0.48578 1.02578,-1.034 2.57955,-1.70164 4.1575,-1.78643 l 0.90229,-0.0485 0.10306,-0.31856 c 0.29046,-0.89786 1.05345,-2.03558 1.90554,-2.8414 0.28224,-0.26691 1.09614,-0.97397 1.80868,-1.57124 1.45922,-1.22318 1.49117,-1.26992 2.04651,-2.99458 0.40384,-1.25412 0.46098,-1.36418 1.29335,-2.49111 0.37662,-0.50989 0.74832,-1.0525 0.826,-1.2058 0.22205,-0.43816 0.47929,-1.49841 0.58576,-2.4142 0.1353,-1.16384 0.32937,-2.05542 0.5881,-2.70169 0.2067,-0.51633 0.21169,-0.56575 0.0824,-0.81579 -0.0757,-0.14639 -0.36222,-0.4578 -0.6367,-0.69203 -1.05358,-0.89907 -1.34653,-1.19671 -1.48845,-1.51226 -0.0807,-0.17946 -0.24314,-0.51046 -0.36095,-0.73556 -0.25652,-0.49012 -0.27257,-0.93841 -0.0496,-1.38218 0.0905,-0.18016 0.43714,-0.40288 0.49763,-0.59712 0.0605,-0.19425 0.0281,-0.63963 0.0885,-0.92241 0.0691,-0.32285 0.26725,-0.67051 0.34749,-0.89648 0.17622,-0.49627 0.26927,-0.64977 0.56531,-0.75788 0.26094,-0.0953 0.65521,0.0205 0.81149,0.18974 0.28189,0.2819 0.41854,0.20683 0.50262,0.0497 0.21201,-0.39614 0.62362,-0.5079 1.10356,-0.25972 0.23664,0.12237 0.40611,0.314 0.67291,0.15135 0.15956,-0.0973 0.28492,-0.25778 0.60609,-0.24657 0.27994,0.01 0.65491,0.21088 0.72026,0.41676 0.049,0.15481 0.31034,-0.26533 0.73197,-0.0687 0.2172,0.1013 0.25511,0.17214 0.5482,0.46521 0.33383,0.33383 0.58425,1.02086 0.58781,1.61263 0.001,0.19757 0.0447,0.53801 0.0968,0.75654 0.16004,0.67223 0.10468,2.23418 -0.133,3.75244 -0.12163,0.77698 -0.36386,2.50531 -0.53828,3.84074 -0.7817,5.98482 -1.28095,8.2825 -2.25418,10.3744 -0.47217,1.01492 -0.73436,1.32572 -1.91737,2.27288 -1.34985,1.08073 -1.49123,1.26271 -2.71466,3.4942 -1.13797,2.07562 -1.6954,2.67195 -4.06364,4.34717 -2.38625,1.68796 -2.56168,1.99317 -3.34671,5.82262 -0.27637,1.34814 -0.59537,2.53801 -1.10071,4.10562 -0.90343,2.8025 -1.27372,4.15885 -1.50958,5.52964 -0.23725,1.37884 -0.3204,3.30311 -0.19026,4.40331 0.14095,1.19158 0.45676,2.56049 0.59071,2.56049 z m -7.79447,10.25568 -2.49766,0.0291 -0.42333,-0.0316 -0.42333,-0.0316 -1.05833,-0.0898 -1.05834,-0.0898 -1.48165,-0.21172 -1.48167,-0.21173 -1.397001,-0.29972 -1.397,-0.29971 -1.58205,-0.45654 -1.58205,-0.45654 -1.16429,-0.42843 -1.16429,-0.42842 -1.02133,-0.4284 -1.02132,-0.4284 -1.406539,-0.70238 -1.40654,-0.70238 -0.92179,-0.52741 -0.9218,-0.52741 -1.56633,-1.04286 -1.56634,-1.04286 -0.93133,-0.72708 -0.93133,-0.72707 -0.97367,-0.83704 -0.97367,-0.83705 -1.56897,-1.59506 -1.56898,-1.59507 -0.70484,-0.84667 -0.70485,-0.84666 -0.8278,-1.10067 -0.8278,-1.10067 -0.80193,-1.22766 -0.80193,-1.22767 -0.52957,-0.9218 -0.52957,-0.92179 -0.70238,-1.40654 -0.70238,-1.40654 -0.4284,-1.02132 -0.4284,-1.02133 -0.42842,-1.16429 -0.42843,-1.16429 -0.45654,-1.58205 -0.456535,-1.58205 -0.299715,-1.397 -0.299714,-1.397 -0.211286,-1.48167 -0.211286,-1.48166 -0.108307,-1.05834 -0.108306,-1.05833 v -2.75167 -2.75166 l 0.108306,-1.05834 0.108307,-1.05833 0.211286,-1.48167 0.211286,-1.48166 0.299714,-1.397 0.299715,-1.397 0.456535,-1.58205 0.45654,-1.58206 0.42843,-1.16428 0.42842,-1.16429 0.4284,-1.02133 0.4284,-1.02133 0.70238,-1.40653 0.70238,-1.40654 0.52957,-0.9218 0.52957,-0.92179 0.80193,-1.22767 0.80193,-1.22767 0.8278,-1.10066 0.8278,-1.10067 0.70485,-0.84667 0.70484,-0.84666 1.56898,-1.59507 1.56897,-1.59506 0.97367,-0.83705 0.97367,-0.83704 0.93133,-0.72709 0.93133,-0.72708 1.56634,-1.04286 1.56633,-1.04285 0.9218,-0.52741 0.92179,-0.52742 1.40654,-0.70237 1.406539,-0.70238 1.02132,-0.4284 1.02133,-0.4284 1.16429,-0.42843 1.16429,-0.42842 1.58205,-0.45654 1.58205,-0.45654 1.397,-0.29972 1.397001,-0.29971 1.48167,-0.21129 1.48165,-0.21128 1.05834,-0.10831 1.05833,-0.10831 h 2.75166 2.75166 l 1.05833,0.10831 1.05834,0.10831 1.48166,0.21128 1.48167,0.21129 1.397,0.29971 1.397,0.29972 1.58206,0.45654 1.58205,0.45654 1.16429,0.42842 1.16429,0.42843 1.02133,0.4284 1.02132,0.4284 1.40654,0.70238 1.40654,0.70237 0.92179,0.52742 0.9218,0.52741 1.56633,1.04285 1.56634,1.04286 0.93133,0.72708 0.93133,0.72709 0.97367,0.83704 0.97367,0.83705 1.56897,1.59506 1.56898,1.59507 0.70484,0.84666 0.70485,0.84667 0.8278,1.10067 0.8278,1.10066 0.80193,1.22767 0.80193,1.22767 0.52957,0.92179 0.52957,0.9218 0.70238,1.40654 0.70238,1.40653 0.4284,1.02133 0.4284,1.02133 0.42842,1.16429 0.42843,1.16428 0.45654,1.58206 0.45654,1.58205 0.29971,1.397 0.29972,1.397 0.21129,1.48166 0.21128,1.48167 0.10831,1.05833 0.1083,1.05834 v 2.75166 2.75167 l -0.1083,1.05833 -0.10831,1.05834 -0.21128,1.48166 -0.21129,1.48167 -0.29972,1.397 -0.29971,1.397 -0.45654,1.58205 -0.45654,1.58205 -0.42843,1.16429 -0.42842,1.16429 -0.4284,1.02133 -0.4284,1.02132 -0.70238,1.40654 -0.70238,1.40654 -0.52741,0.92179 -0.52741,0.9218 -1.04286,1.56633 -1.04286,1.56634 -0.72708,0.93133 -0.72707,0.93133 -0.83704,0.97367 -0.83705,0.97367 -1.59506,1.56897 -1.59507,1.56898 -0.84667,0.70484 -0.84666,0.70485 -1.10067,0.8278 -1.10067,0.8278 -1.22766,0.80193 -1.22767,0.80193 -0.9218,0.52957 -0.92179,0.52957 -1.40654,0.70238 -1.40654,0.70238 -1.02132,0.4284 -1.02133,0.4284 -1.16429,0.42842 -1.16429,0.42843 -1.58205,0.45654 -1.58206,0.45654 -1.397,0.29808 -1.397,0.29807 -1.143,0.17149 -1.143,0.17147 -1.22767,0.13416 -1.22766,0.13417 z"
       inkscape:connector-curvature="0"
       sodipodi:nodetypes="cccccccccccccccccccccccccccccccccccccccccccccccccccccccccccccccccccccccccccccccccccccccccccccccccccccccccccccccccccccccccccccccccccccccccccccccccccccccccccccccccccccccccccccccccccccccccscccccccccccsccccccccscsccccsccccsccccccccccccsccscccccccccccccccssssaccccscsccccccccscccsccccccccccccccccccccccccccccccccccccccccccccccccccccccccccccccccccccccccccccccccccccccccccccccccccccccccccccccccccccccccccccccccccccccccccccccccccccccccccccccccccccccccccccccccccccccccccccccccccccc" />
    <circle
       style="display:inline;opacity:0.93999999;fill:#ffffff;fill-opacity:1;stroke:#000000;stroke-width:0.20252289;stroke-opacity:1"
       id="path1129"
       cx="67.139931"
       cy="190.15437"
       r="1.0104831" />
    <path
       style="display:inline;opacity:0.93999999;fill:#ffffff;fill-opacity:1;stroke:#000000;stroke-width:0.20252289;stroke-opacity:1"
       d="m 145.64694,190.15437 a 1.0104831,1.0104831 0 0 0 1.01048,1.01049 1.0104831,1.0104831 0 0 0 1.01049,-1.01049 1.0104831,1.0104831 0 0 0 -1.01049,-1.01049 1.0104831,1.0104831 0 0 0 -1.01048,1.01049 z"
       id="path1129-4"
       inkscape:connector-curvature="0" />
    <path
       style="opacity:1;fill:#fcfcfc;fill-opacity:1;fill-rule:nonzero;stroke:none;stroke-width:0.35355338;stroke-opacity:1"
       d="m 221.90192,317.83205 c -0.21142,-0.73859 -0.718,-3.25207 -1.12573,-5.58553 -0.62486,-3.5761 -0.70918,-5.10358 -0.53671,-9.72271 0.31822,-8.52273 1.34738,-13.32932 6.24531,-29.16816 1.56344,-5.05581 3.41089,-11.81752 4.10545,-15.02602 2.51626,-11.62378 3.42874,-14.33575 5.85358,-17.39737 0.6025,-0.76071 3.81902,-3.41543 7.14784,-5.89938 9.79785,-7.3111 10.70988,-8.33129 16.46946,-18.42255 3.70875,-6.49802 4.21637,-7.12337 9.04659,-11.14456 4.50443,-3.74996 5.26545,-4.63563 7.00124,-8.14785 3.82225,-7.73402 5.54998,-15.61874 9.05898,-41.342 0.98146,-7.19481 1.86492,-13.47922 1.96323,-13.96536 0.0983,-0.48613 0.32279,-2.79307 0.49883,-5.12652 0.32386,-4.2926 -0.23435,-11.92889 -1.06177,-14.52536 -0.91281,-2.86438 -3.95255,-5.43475 -5.67405,-4.79793 -0.59794,0.2212 -0.99307,0.13264 -1.49512,-0.33509 -1.08166,-1.00772 -2.60266,-1.17946 -4.17326,-0.47122 -1.30484,0.5884 -1.46344,0.59061 -2.62546,0.0365 -1.74673,-0.83296 -3.10379,-0.73786 -4.34233,0.3043 l -1.06252,0.89405 -1.17431,-0.71595 c -1.53277,-0.9345 -2.86859,-0.90857 -3.96232,0.0769 -1.17534,1.05898 -2.7111,4.87188 -2.946,7.31413 -0.12989,1.35049 -0.43852,2.24356 -0.98507,2.85053 -2.10771,2.34064 -2.15162,4.45175 -0.17475,8.40142 1.16661,2.3308 1.89511,3.24747 4.15426,5.22727 4.86296,4.26163 5.19738,4.8555 4.14826,7.3664 -0.74029,1.77177 -1.45156,4.99575 -2.11514,9.58727 -0.91906,6.35932 -1.7081,8.74318 -3.96724,11.98587 -4.26797,6.12608 -4.6458,6.8236 -6.39326,11.80279 -0.97483,2.77768 -2.18958,5.59724 -2.69942,6.26568 -0.50985,0.66845 -3.18946,3.16608 -5.95468,5.55029 -2.76523,2.38422 -5.81227,5.13313 -6.77119,6.10869 -2.09348,2.1298 -4.76796,6.13972 -5.87269,8.80508 l -0.80407,1.93997 -2.33061,0.20357 c -6.77395,0.59168 -12.18619,2.74675 -16.2906,6.48666 l -2.29273,2.08912 -1.7321,-1.4507 c -0.95265,-0.79789 -2.21977,-1.86794 -2.8158,-2.3779 l -1.0837,-0.92719 0.42586,-2.78512 c 0.35113,-2.29639 0.92785,-3.8025 3.28659,-8.58288 4.43459,-8.98747 4.50907,-9.34699 2.65888,-12.83455 -1.19269,-2.24819 -1.19424,-2.25755 -1.33683,-8.0727 -0.13802,-5.62899 -0.17904,-5.89925 -1.23778,-8.15616 -0.68186,-1.4535 -1.97048,-3.26229 -3.41522,-4.79378 -3.92564,-4.16139 -7.18801,-5.4231 -14.02229,-5.4231 -7.0282,0 -11.82153,1.82804 -16.12077,6.14802 -2.88152,2.89542 -4.16892,5.2608 -4.95126,9.09714 -0.50297,2.4664 -0.49266,2.92622 0.1501,6.69465 l 0.69017,4.04636 -0.86878,2.12132 c -1.50552,3.67607 -1.23159,4.98465 2.43724,11.64273 1.08958,1.97734 1.16207,2.33229 1.27238,6.23079 l 0.11697,4.13401 -2.59184,1.40913 c -1.99139,1.08267 -2.74446,1.33093 -3.25057,1.07159 -0.36229,-0.18564 -1.87374,-1.46446 -3.35876,-2.84182 -4.65508,-4.31758 -5.86971,-4.85903 -12.70275,-5.66252 l -3.63608,-0.42756 -1.37106,-3.40719 c -0.75408,-1.87395 -1.79486,-4.07853 -2.31284,-4.89907 -1.35799,-2.15119 -6.21387,-7.10052 -9.24208,-9.41994 -2.56931,-1.96793 -2.60342,-2.01537 -2.60605,-3.6244 -0.006,-3.76427 -0.92291,-7.36341 -4.41523,-17.33444 -2.02552,-5.7831 -2.0342,-5.82544 -2.3484,-11.4523 -0.201,-3.59983 -0.58135,-6.68719 -1.04891,-8.51435 -1.06689,-4.16924 -1.00758,-5.44498 0.34028,-7.31892 0.61637,-0.85695 1.74532,-2.43313 2.50878,-3.50263 2.56705,-3.5961 2.92137,-6.27327 1.82086,-13.75806 -0.40809,-2.77548 -0.90881,-3.62143 -2.68751,-4.54047 -1.47761,-0.76347 -1.8605,-1.37373 -2.33564,-3.72262 -0.6404,-3.1659 -2.48737,-4.16225 -5.4337,-2.93119 -1.03138,0.43093 -1.26416,0.43228 -1.61516,0.009 -0.72395,-0.8723 -2.7032,-1.00573 -4.50856,-0.30393 -0.91527,0.3558 -2.51446,0.65321 -3.55377,0.66093 -1.6291,0.0121 -1.99653,0.14808 -2.66493,0.9863 -0.59988,0.7523 -1.07751,0.97227 -2.11108,0.97227 -3.16106,0 -3.76009,1.22417 -3.84902,7.86581 -0.0669,4.99671 -0.0533,5.09216 1.63164,11.40285 2.093,7.8393 2.35259,11.42916 1.5,20.74407 -1.36816,14.94764 -0.42882,26.63503 2.93419,36.50782 1.27319,3.73772 2.44062,5.5652 6.51208,10.194 3.82073,4.34374 4.51976,5.36787 7.60483,11.14166 3.08958,5.78221 5.0948,8.91457 8.19792,12.806 2.74789,3.44596 7.35825,8.01106 10.34717,10.24557 1.12762,0.84301 2.20153,1.81549 2.38649,2.16108 0.18495,0.34559 0.33721,2.03092 0.33836,3.74518 0.005,7.3473 1.59569,14.26465 7.30258,31.75466 3.66328,11.22693 5.23253,17.24529 5.74223,22.02256 0.50392,4.72303 0.46035,15.45273 -0.076,18.71198 l -0.41976,2.55076 -5.48008,-1.88674 c -11.63478,-4.00575 -19.83729,-8.05175 -30.05203,-14.82357 -7.48044,-4.95912 -12.68916,-9.30854 -20.34639,-16.98977 -10.72966,-10.7633 -17.457923,-20.08315 -24.148575,-33.45009 -6.75839,-13.50228 -10.512106,-25.65211 -12.834642,-41.54252 -0.729483,-4.991 -0.826804,-6.96776 -0.826804,-16.79379 0,-12.18207 0.449052,-16.7685 2.665429,-27.22361 3.96233,-18.69112 12.419664,-36.94043 24.411418,-52.67517 4.323389,-5.67285 16.230214,-17.78419 21.887174,-22.263119 4.1233,-3.264646 12.44602,-8.910638 16.79378,-11.39261 12.60193,-7.193967 28.01358,-12.749876 41.89608,-15.103558 9.88191,-1.67541 12.82637,-1.877778 24.83006,-1.706532 12.00471,0.171261 16.81068,0.672324 26.08163,2.719234 19.2499,4.250136 37.63702,13.02911 53.20979,25.405141 4.77411,3.794096 14.59923,13.283924 18.18477,17.564194 14.31999,17.09462 24.1143,37.11824 28.448,58.15953 2.106,10.22514 2.50997,14.49297 2.50997,26.5165 0,9.71691 -0.10198,11.83568 -0.79986,16.61701 -2.31753,15.87789 -5.89757,27.5619 -12.62049,41.18897 -3.98426,8.07593 -9.74527,17.20383 -15.06214,23.86486 -3.51611,4.40502 -13.06744,14.24737 -17.3015,17.82867 -14.0691,11.90008 -30.1891,20.61831 -47.72971,25.81382 -3.01404,0.89275 -5.7489,1.70797 -6.07746,1.8116 -0.45262,0.14274 -0.69055,-0.13704 -0.9818,-1.15447 z"
       id="path852"
       inkscape:connector-curvature="0"
       transform="matrix(0.26458333,0,0,0.26458333,56.057082,139.38116)" />
  </g>
  <g
     inkscape:groupmode="layer"
     id="layer6"
     inkscape:label="text"
     style="display:inline">
    <text
       xml:space="preserve"
       style="font-style:normal;font-variant:normal;font-weight:normal;font-stretch:normal;font-size:10.5833px;line-height:125%;font-family:sans-serif;-inkscape-font-specification:'sans-serif, Normal';font-variant-ligatures:normal;font-variant-caps:normal;font-variant-numeric:normal;font-feature-settings:normal;text-align:center;letter-spacing:0px;word-spacing:0.621771px;writing-mode:lr-tb;text-anchor:middle;display:inline;fill:#ffffff;fill-opacity:1;stroke:#000000;stroke-width:0.264583px;stroke-linecap:butt;stroke-linejoin:miter;stroke-opacity:1"
       id="text4543"
       transform="translate(-56.057083,-42.381159)"><textPath
         xlink:href="#path853-9"
         startOffset="50%"
         id="textPath1122"
         style="font-size:6.70278px;line-height:0px;letter-spacing:0.291042px;fill:#ffffff;fill-opacity:1;stroke:#000000;stroke-opacity:1"><tspan
           style="font-style:normal;font-variant:normal;font-weight:normal;font-stretch:condensed;font-size:6.70278px;line-height:0px;font-family:Impact;-inkscape-font-specification:'Impact, Condensed';font-variant-ligatures:normal;font-variant-caps:normal;font-variant-numeric:normal;font-feature-settings:normal;text-align:center;letter-spacing:0.291042px;writing-mode:lr-tb;text-anchor:middle;fill:#ffffff;fill-opacity:1;stroke:#000000;stroke-width:0.264583px;stroke-opacity:1"
           id="tspan4541"
           rotate="0 0 0 0 0 0 0 0 0 0 0 0 0 0 0 0 0 0 0 0"
           dx="7.2199998">PROF. ISRAEL DAVILA</tspan></textPath></text>
    <text
       xml:space="preserve"
       style="font-style:normal;font-weight:normal;font-size:10.5833px;line-height:0%;font-family:sans-serif;letter-spacing:0px;word-spacing:0px;display:inline;fill:#ffffff;fill-opacity:1;stroke:#000000;stroke-width:0.264583px;stroke-linecap:butt;stroke-linejoin:miter;stroke-opacity:1"
       id="text4649"
       transform="translate(-56.057083,-42.381159)"><textPath
         xlink:href="#path853-2"
         id="textPath1109"
         style="font-style:normal;font-variant:normal;font-weight:bold;font-stretch:normal;font-size:6.70278px;line-height:0%;font-family:Impact;-inkscape-font-specification:'Impact Bold';letter-spacing:0.291042px;word-spacing:0.621771px;fill:#ffffff;fill-opacity:1;stroke:#000000;stroke-opacity:1"
         dx="17.530001">BRAZILIAN TOP TEAM - LAGO VISTA </textPath></text>
  </g>
</svg>
