<svg viewBox="-1558 167.657 1772 415.748" xmlns="http://www.w3.org/2000/svg">
  <g id="g4526" transform="matrix(1.333333, 0, 0, -1.333333, -1622.534424, 583.405151)" style="opacity: 1;">
    <path d="M 48.554 311.811 L 1373.682 311.811 L 1373.682 0 L 48.554 0 L 48.554 311.811 Z" style="fill:#000000;fill-opacity:1;fill-rule:evenodd;stroke:#231f20;stroke-width:0.56690001;stroke-linecap:butt;stroke-linejoin:miter;stroke-miterlimit:22.92558479;stroke-dasharray:none;stroke-opacity:1" id="path4540"/>
    <path d="m 954.2608,180.794 v 97.253 H 918.2866 V 163.5812 h 84.8755 l 4.7869,17.2128 z" style="fill:#ffffff;fill-opacity:1;fill-rule:nonzero;stroke:none" id="path4542"/>
    <path d="m 463.9354,123.3507 -4.7767,17.2191 H 356.4513 l -4.7667,-17.2128 h 39.7131 V 26.104 h 35.9739 v 97.253 l 36.5638,-0.006 z" style="fill:#ffffff;fill-opacity:1;fill-rule:nonzero;stroke:none" id="path4544"/>
    <path d="m 842.8805,252.2667 0.0422,0.004 -0.0102,0.0261 0.0102,0.006 -0.0102,0.007 -7.1558,25.7819 h -0.0204 -93.7346 l -4.7812,-17.2125 h 66.7902 l 1.0525,-3.7939 -67.8427,-67.678 7.1603,-25.8106 93.7652,0.0258 4.7767,17.21 -66.8015,0.0192 -1.0426,3.7698 67.8019,67.6457 z" style="fill:#ffffff;fill-opacity:1;fill-rule:nonzero;stroke:none" id="path4546"/>
    <path d="m 652.2826,209.484 12.5107,45.0638 11.736,-42.3479 z m 37.7402,-45.9054 h 35.9626 L 694.2348,278.047 H 635.3271 L 603.5808,163.5786 h 35.964 l 7.7295,27.8637 33.9605,3.8058 z" style="fill:#ffffff;fill-opacity:1;fill-rule:nonzero;stroke:none" id="path4548"/>
    <path d="m 1123.0404,209.484 12.5121,45.0638 11.7465,-42.3479 z m 37.7402,-45.9054 h 35.9742 l -31.752,114.4684 h -58.9062 l -31.7667,-114.4684 h 35.9787 l 7.7148,27.8637 33.9794,3.8058 z" style="fill:#ffffff;fill-opacity:1;fill-rule:nonzero;stroke:none" id="path4550"/>
    <path d="m 1083.2357,72.1894 12.502,45.0635 11.7567,-42.3443 z m 37.7504,-45.9029 h 35.964 l -31.752,114.4692 h -58.9062 L 1034.5354,26.2865 h 35.9626 l 7.7295,27.8646 33.9605,3.8086 z" style="fill:#ffffff;fill-opacity:1;fill-rule:nonzero;stroke:none" id="path4552"/>
    <path d="m 894.7826,163.635 h -35.9743 v 114.4137 h 35.9743 z" style="fill:#ffffff;fill-opacity:1;fill-rule:nonzero;stroke:none" id="path4554"/>
    <path d="m 1057.0425,163.635 h -35.9728 v 114.4137 h 35.9728 z" style="fill:#ffffff;fill-opacity:1;fill-rule:nonzero;stroke:none" id="path4556"/>
    <path d="m 964.0809,77.4774 36.6468,4.0547 5.0128,18.0416 -41.6596,-4.6125 v 28.5755 h 53.6884 l -4.7769,17.219 H 928.1083 V 26.2874 h 84.8841 l 4.7769,17.219 h -53.6884 z" style="fill:#ffffff;fill-opacity:1;fill-rule:nonzero;stroke:none" id="path4558"/>
    <path d="m 905.8881,123.5384 -4.7755,17.2154 H 798.4097 l -4.7812,-17.2126 h 39.723 v -97.253 h 35.9626 v 97.253 l 36.574,-0.003 z" style="fill:#ffffff;fill-opacity:1;fill-rule:nonzero;stroke:none" id="path4560"/>
    <path d="m 555.8386,51.3383 c 0,-7.818 -0.1894,-7.831 -15.1053,-7.831 h -9.3118 c -14.9159,0 -15.1052,0.013 -15.1052,7.831 v 64.074 c 0,8.0076 0.0408,8.1252 14.4632,8.1289 h 10.5962 c 14.4323,-0.004 14.4629,-0.1213 14.4629,-8.1289 z m 35.9742,75.5424 c 0,8.7183 -2.5682,13.8759 -22.9337,13.8759 H 503.28 c -20.3695,0 -22.932,-5.1576 -22.932,-13.8759 V 40.1678 c 0,-8.7256 2.5625,-13.8796 22.932,-13.8796 h 65.5991 c 20.3655,0 22.9337,5.154 22.9337,13.8796 z" style="fill:#ffffff;fill-opacity:1;fill-rule:nonzero;stroke:none" id="path4562"/>
    <path d="m 1296.7877,278.0977 v -91.6353 l -25.4188,91.6353 h -56.7703 V 163.5868 h 36.0045 v 91.6345 l 25.4189,-91.6345 h 56.7689 v 114.5109 z" style="fill:#ffffff;fill-opacity:1;fill-rule:nonzero;stroke:none" id="path4564"/>
    <path d="m 1276.4631,140.8003 -22.9641,-82.7499 -22.9481,82.7499 h -55.1367 V 26.2891 h 36.0045 v 91.6381 l 25.429,-91.6381 h 33.3128 l 25.4245,91.6475 V 26.2891 h 35.9989 v 114.5112 z" style="fill:#ffffff;fill-opacity:1;fill-rule:nonzero;stroke:none" id="path4566"/>
    <path d="m 653.2654,123.7263 h 24.2685 c 15.1359,0 15.1359,0 15.1359,-8.1408 v -11.2816 c 0,-5.4842 0,-5.6738 -8.5768,-6.6333 h -0.0102 L 653.2654,94.318 Z m 64.3192,-39.818 c 8.7211,0.9788 11.1203,2.9416 11.1203,8.771 v 34.3865 c 0,8.735 -2.5682,13.9054 -22.9742,13.9054 H 617.2299 V 26.2874 l 36.0355,0.0065 v 50.5145 z" style="fill:#ffffff;fill-opacity:1;fill-rule:nonzero;stroke:none" id="path4568"/>
    <path d="m 553.9329,240.3451 c 0,-5.4715 0,-5.6574 -8.5564,-6.6133 l -0.0102,-0.004 -30.7562,-3.3461 v 30.5085 h 24.2175 c 15.1053,0 15.1053,0 15.1053,-8.1213 v -12.4242 z m 35.952,-7.6811 v 31.5596 c 0,8.7156 -2.5667,13.8733 -22.9218,13.8733 h -52.353 -35.9584 V 163.6665 l 35.9584,0.004 v 47.5248 l 30.7562,-3.3432 h 0.0102 c 8.5564,-0.9558 8.5564,-1.1483 8.5564,-6.6161 v -37.4314 h 35.952 v 45.4745 c 0,5.8107 -2.3876,7.7726 -11.0837,8.7488 l -26.6562,2.9407 26.6562,2.944 c 8.6961,0.9791 11.0837,2.9353 11.0837,8.7517" style="fill:#ffffff;fill-opacity:1;fill-rule:nonzero;stroke:none" id="path4570"/>
    <path d="m 427.4708,240.3451 c 0,-5.4715 0,-5.6574 -8.5623,-6.6133 l -0.004,-0.004 -30.7505,-3.3461 v 30.5085 h 24.2118 c 15.1053,0 15.1053,0 15.1053,-8.1213 v -12.4242 z m 0,-39.1094 v -12.274 c 0,-8.1215 0,-8.1215 -15.1053,-8.1215 h -24.2118 v 30.3548 l 30.7505,-3.3432 h 0.004 c 8.5623,-0.9558 8.5623,-1.1483 8.5623,-6.6161 z m 35.9521,31.4283 v 31.5596 c 0,8.7156 -2.5668,13.8733 -22.9275,13.8733 h -52.3417 -35.958 V 163.6665 l 35.958,0.004 v -0.0363 h 52.3417 c 20.3607,0 22.9275,5.1514 22.9275,13.8705 v 31.7744 c 0,5.8107 -2.3876,7.7726 -11.0823,8.7488 l -26.6579,2.9407 26.6579,2.944 c 8.6947,0.9791 11.0823,2.9353 11.0823,8.7517" style="fill:#ffffff;fill-opacity:1;fill-rule:nonzero;stroke:none" id="path4572"/>
    <path d="M 135.9043,26.2865 258.929,135.9737 V 26.2865 Z" style="fill:#6785a8;fill-opacity:1;fill-rule:nonzero;stroke:none" id="path4574"/>
    <path d="M 258.929,135.9717 135.9043,26.2865 H 83.8919 v 144.7121 l 120.1218,107.0991 h 54.9153 z" style="fill:#edd888;fill-opacity:1;fill-rule:nonzero;stroke:none" id="path4576"/>
    <path d="M 204.0148,278.0977 83.8919,170.9986 v 107.0991 z" style="fill:#618b73;fill-opacity:1;fill-rule:nonzero;stroke:none" id="path4578"/>
    <path d="m 117.4292,265.532 c -0.2501,0.8292 -0.3561,1.1095 -0.0916,1.7008 0.2676,0.5902 1.0244,0.8255 1.2671,1.2011 0.2571,0.3719 1.2889,1.4167 1.6858,1.5341 0.4039,0.1176 1.0723,-0.2155 1.4065,-0.1276 0.3385,0.1043 2.575,1.7986 3.4537,1.8774 0.8737,0.0748 1.2527,-0.7736 1.7992,-0.6922 0.5289,0.0813 1.4037,1.129 1.8513,1.2271 0.4448,0.0952 2.7187,-0.1111 3.1153,-0.3915 0.4039,-0.284 0.7381,-0.2545 0.83,-1.5341 0.0841,-1.2835 0.0436,-2.1478 0.2352,-2.4588 0.2019,-0.3163 1.7961,-0.0683 1.7147,-1.1582 -0.0768,-1.0874 -0.3373,-1.3935 -0.2353,-1.9525 0.1001,-0.5581 0.8309,-1.5795 0.7685,-2.503 -0.0624,-0.9207 -1.165,-1.512 -1.8513,-1.8414 -0.6829,-0.3265 -3.1153,-1.2963 -3.0787,-1.9783 0.0374,-0.682 0.3716,-4.015 0.1363,-4.3611 -0.2239,-0.3625 -1.3515,-0.3886 -1.3515,-0.3886 -0.9882,-7.4849 5.1675,-13.1023 6.3952,-19.3731 0.6684,-3.4118 -0.324,-6.3394 0.3226,-8.1575 0.199,-0.5619 3.5924,-3.4274 5.9621,-7.5802 2.3655,-4.1547 2.8684,-7.7133 2.8684,-7.7133 3.8089,0.1859 8.062,-3.3166 9.0357,-5.7416 0,0 2.1127,0.3915 4.2429,0.1434 -0.2832,1.5701 -1.3192,7.5634 -1.3192,9.9664 0,2.7714 0.5737,14.7347 12.8265,13.7262 12.4123,-1.0216 10.5392,-10.802 10.4538,-11.8395 0,0 1.9908,0.0686 1.7524,-2.9285 -0.301,-3.5577 -3.056,-3.4662 -3.056,-4.214 0,-0.754 0.2645,-4.8376 0.2645,-4.8376 0,0 1.9355,-0.7021 2.3323,-0.5717 0.3935,0.1304 2.5716,2.2496 4.1136,3.2193 1.5319,0.966 3.71,0.6625 4.2098,1.0049 0.4924,0.3588 -0.2979,4.4952 2.1271,9.5584 2.4313,5.0689 6.6628,7.7652 6.9752,8.549 0.5652,1.4426 0.0655,6.6558 0.9661,10.527 1.6234,6.9917 7.8122,8.0893 8.312,15.7989 0,0 -1.5389,0.4831 -1.5868,0.8357 -0.048,0.356 0.5476,2.2039 0.5476,2.5566 0,0.3551 -1.5316,1.8932 -1.9834,2.5491 -0.4448,0.6625 -2.7737,1.4131 -2.9758,1.9423 -0.1947,0.5321 0.2021,1.9384 0.25,3.036 0.055,1.1001 -0.2937,1.9386 -0.2937,2.6861 0,0.7503 0.7892,0.8393 1.2306,1.0151 0.4552,0.1703 1.186,0.0685 2.2407,0.0462 0,0 1.234,1.6285 1.6784,2.7314 0.4479,1.0939 1.6858,1.006 2.3324,0.9207 0.6352,-0.0879 1.4836,-1.4553 2.0792,-1.6747 0.5947,-0.2211 2.4749,-0.0482 3.2683,-0.3061 0.7935,-0.2713 2.1824,-2.5495 2.7301,-2.8205 0.5394,-0.2648 2.1742,0.705 2.5302,-1.4981 0.129,-0.7838 -0.4998,-1.3224 -0.4998,-1.5341 0,-0.2223 0.3425,-0.5358 0.4924,-2.3837 0.1469,-1.8468 -1.3325,-3.7927 -1.6857,-4.5765 -0.3487,-0.7957 -0.1508,-1.8119 -0.1508,-3.1692 0,-1.3648 -2.1306,-1.4527 -2.1306,-1.4527 -0.1425,-2.2986 -1.2858,-15.1492 -1.8292,-19.5075 -0.5436,-4.3582 -3.8599,-7.8375 -4.0149,-8.5461 -0.1469,-0.7013 0.155,-1.3252 0,-1.9783 -0.1469,-0.6625 -0.6381,-0.9689 -0.8881,-1.9387 -0.2469,-0.966 1.9355,-7.397 -2.1782,-16.6906 -4.1182,-9.2929 -9.3668,-13.0765 -10.2631,-14.4377 -0.8923,-1.3649 -2.2774,-8.373 -3.1737,-10.0472 -0.8923,-1.6681 -3.4486,-4.0249 -5.3444,-5.0142 -0.7237,-4.1813 -4.8115,-5.2259 -6.2036,-8.1805 -1.389,-2.9471 -2.02,-13.6216 -2.0722,-15.4658 -0.0479,-1.8476 1.0361,-8.2814 1.0361,-8.8532 0,0 1.2192,-0.1825 1.1089,-1.1817 -0.051,-0.5709 0.3864,-2.0069 0.4156,-2.5815 0.0405,-0.5746 1.2744,-2.7556 1.6055,-3.4674 0.33,-0.7078 1.065,-3.058 1.3076,-3.5475 0.2345,-0.4839 1.5421,-1.9951 1.6784,-2.6122 0.1355,-0.6199 0.2427,-1.9125 0.2271,-2.3992 -0.007,-0.4765 1.1985,-4.1159 1.4774,-4.9153 0.2823,-0.7968 1.3297,-4.6516 1.4026,-5.576 0.0842,-0.9272 1.0652,-3.3681 1.1537,-3.8095 0.0842,-0.4368 0.7194,-1.237 0.8671,-1.5471 0.1429,-0.3135 0.1063,-1.2436 0.0989,-1.5962 -0.007,-0.3563 0.3821,-1.2731 0.3821,-1.7626 0.007,-1.0151 -0.6392,-1.3122 -0.6392,-1.3122 -0.1729,-0.7477 -0.4152,-5.7424 0.1106,-6.5871 0.5216,-0.8422 3.3931,-3.3758 5.5494,-7.2862 2.2887,-4.1593 1.9179,-21.9427 2.2334,-23.3167 0.3197,-1.3714 2.6042,-5.2494 2.8321,-5.9932 0.2353,-0.7543 -0.0332,-3.483 -0.055,-4.4527 -0.0221,-0.9697 2.431,-6.4698 2.3987,-7.8412 -0.0332,-1.3637 -1.0576,-2.9701 -1.2671,-3.2312 -0.2061,-0.2608 -0.559,-1.4137 -1.1129,-2.0143 -0.5624,-0.6069 -2.1461,-1.0834 -2.7332,-1.0772 -0.5955,0.0102 -1.3005,-0.9105 -1.7076,-1.2563 -0.4039,-0.3498 -1.0142,-0.5581 -1.3702,-0.731 -0.349,-0.1704 -0.4082,-1.2215 -2.1855,-1.0486 -1.789,0.1639 -2.4906,3.9595 -2.7445,5.6344 -0.2645,1.6841 1.6679,7.8965 1.7302,8.6468 0.074,0.7515 -1.0318,2.4846 -1.0984,3.7645 -0.0697,1.2823 0.9924,4.1221 0.9547,5.053 -0.0218,0.9235 -0.5029,1.8116 -1.7294,4.0343 -1.2421,2.2291 -5.6642,8.2519 -7.1521,10.0868 -1.495,1.8311 -2.126,6.5548 -2.2187,6.9103 -0.0915,0.3563 -1.0652,1.038 -1.6483,1.6154 -0.584,0.5848 -1.2348,2.1773 -1.4701,2.579 -0.2384,0.4053 -2.5271,2.2532 -3.2507,3.2349 -0.7195,0.9828 -1.9063,3.2644 -2.0781,4.2276 0,0 -1.8338,0.2092 -3.0124,0.6239 -1.1869,0.4144 -1.6897,1.6183 -1.8802,2.0134 -0.1916,0.4014 -0.2948,2.3474 -0.2801,2.7814 0.008,0.4405 -0.2531,2.207 -0.3883,2.6963 -0.1367,0.483 -0.9998,1.6906 -1.1903,2.0923 -0.1916,0.3988 -0.9411,2.1282 -1.0808,2.5296 -0.1395,0.3988 -1.0058,1.512 -1.2005,1.8249 -0.1874,0.3099 -0.7455,2.2689 -1.1347,2.8925 -0.25,0.4107 -1.0914,7.2561 -1.8661,8.7191 -0.809,-2.9673 0.631,-7.6717 0.8997,-10.3643 0.0624,-0.6109 0.2427,-5.4805 0.2977,-5.8368 0.0439,-0.3527 -0.0698,-0.6792 -0.0698,-1.0772 0,-0.398 0.1979,-0.9011 0.2416,-1.2076 0.0552,-0.3098 -0.1905,-1.0768 -0.1497,-1.8283 0.0581,-0.7503 0.4039,-0.3526 0.5029,-1.7164 0.0958,-1.3649 -2.1816,-1.4989 -2.1816,-1.4989 0.4,-1.6325 -2.1345,-7.8866 -2.226,-9.9066 -0.099,-2.0273 2.9936,-6.963 3.7579,-10.1265 1.5199,-6.2569 -5.4769,-13.3543 -0.6874,-24.0018 0.5697,-1.277 2.1274,-2.1977 2.527,-2.9933 0.3969,-0.794 -0.2052,-2.1218 0.099,-2.886 1.2526,-3.1073 2.5602,-3.4931 2.4281,-5.699 -0.2384,-3.8688 -5.1091,-3.5227 -5.8476,-3.8365 -0.7381,-0.2996 -2.4278,-3.9166 -3.0705,-4.2655 -0.6465,-0.3527 -1.8844,-0.3527 -2.531,-0.705 -0.6466,-0.3563 -1.2047,-1.4695 -3.0373,-1.427 -1.8261,0.0454 -2.7593,1.7368 -3.0121,1.9591 -0.2427,0.2117 -2.3698,0.6522 -3.4121,1.671 -0.4892,0.4793 0.1021,1.3674 -0.1032,2.2031 -0.1944,0.8291 -0.1145,2.0338 1.1934,2.1577 0.4519,0.0428 1.6387,0.483 2.1824,0.6987 0.5434,0.2248 1.976,2.2456 2.5707,2.9084 0.5956,0.6559 2.6779,3.1238 3.1255,3.653 0.449,0.5284 0.449,1.1492 0.148,2.5557 -0.3019,1.4102 -8.4266,17.17 -10.5015,24.1784 -2.0795,6.9953 -0.9485,11.882 -0.9924,12.3233 -0.055,0.4405 -0.5434,1.7655 -0.6497,2.4679 -0.0916,0.705 0.5468,1.9774 0.4989,2.5557 -0.051,0.5709 -1.3329,6.6067 -2.0784,7.4849 -0.7455,0.8816 -5.2018,2.6019 -5.3518,3.7437 -0.1511,1.1398 0.8371,2.1087 0.8966,2.5954 0.0394,0.4867 -1.1506,2.2031 -1.1506,2.7326 0,0.5284 0.2018,2.7249 0.254,3.4764 0.051,0.7503 -1.2889,7.0444 -1.6387,7.8409 -0.3416,0.7895 -0.0989,11.4443 0.1029,13.383 0.199,1.9357 0.6352,5.4583 0.6684,6.0689 0.0334,0.8938 -0.2747,1.8119 -0.2018,2.4409 0.0666,0.6339 0.7495,1.3028 1.1494,1.3326 0.4122,0.0454 0.2571,1.0834 0.1948,2.2587 -0.0627,1.1715 0.8932,2.7776 1.1202,4.1686 0.2353,1.4037 1.5503,22.6607 1.565,24.3811 0.007,1.707 -1.4984,4.6284 -1.7118,6.0318 -0.2123,1.4139 0.0989,3.2323 0.1292,3.4441 0.0145,0.2157 -1.1494,2.4188 -1.771,3.8421 -0.6135,1.423 -0.4771,5.8266 -0.6789,7.1387 -0.199,1.3156 -3.9017,4.5995 -7.6476,10.0415 -3.7463,5.4547 -3.1476,12.7018 -3.005,13.7296 -0.3374,0.0751 -2.4937,1.7989 -2.0024,4.0085 -8.4223,8.0529 -4.1242,21.0415 -2.861,31.1505 -0.6466,-0.0258 -1.2121,0.1666 -1.4143,0.4507 -0.3486,0.4802 0.6466,3.7477 0.603,4.5802 -3.1632,1.4879 -0.6466,4.7035 -0.7019,5.8102 -0.4371,0.2219 -0.8441,0.3228 -1.091,1.1593" style="fill:#000000;fill-opacity:1;fill-rule:nonzero;stroke:none" id="path4580"/>
  </g>
</svg>