<?xml version="1.0" encoding="UTF-8" standalone="no"?>
<!-- Created with Inkscape (http://www.inkscape.org/) -->

<svg
   version="1.1"
   id="svg4518"
   xml:space="preserve"
   width="3666.1416"
   height="415.74799"
   viewBox="0 0 3666.1416 415.74799"
   sodipodi:docname="LagoVista_BTT Banner-v2.svg"
   inkscape:version="1.2 (dc2aedaf03, 2022-05-15)"
   xmlns:inkscape="http://www.inkscape.org/namespaces/inkscape"
   xmlns:sodipodi="http://sodipodi.sourceforge.net/DTD/sodipodi-0.dtd"
   xmlns:xlink="http://www.w3.org/1999/xlink"
   xmlns="http://www.w3.org/2000/svg"
   xmlns:svg="http://www.w3.org/2000/svg"
   xmlns:rdf="http://www.w3.org/1999/02/22-rdf-syntax-ns#"
   xmlns:cc="http://creativecommons.org/ns#"
   xmlns:dc="http://purl.org/dc/elements/1.1/"><metadata
     id="metadata4524"><rdf:RDF><cc:Work
         rdf:about=""><dc:format>image/svg+xml</dc:format><dc:type
           rdf:resource="http://purl.org/dc/dcmitype/StillImage" /></cc:Work></rdf:RDF></metadata><defs
     id="defs4522"><inkscape:path-effect
       effect="simplify"
       id="path-effect885"
       is_visible="false"
       steps="1"
       threshold="0.0056"
       smooth_angles="0"
       helper_size="5"
       simplify_individual_paths="false"
       simplify_just_coalesce="false" /><inkscape:path-effect
       simplify_just_coalesce="false"
       simplify_individual_paths="false"
       helper_size="5"
       smooth_angles="0"
       threshold="0.0056"
       steps="1"
       is_visible="false"
       id="path-effect836"
       effect="simplify" /><inkscape:path-effect
       simplify_just_coalesce="false"
       simplify_individual_paths="false"
       helper_size="5"
       smooth_angles="0"
       threshold="0.0018"
       steps="1"
       is_visible="true"
       id="path-effect832"
       effect="simplify" /><inkscape:path-effect
       interpolator_type="CubicBezierFit"
       is_visible="true"
       id="path-effect830"
       effect="interpolate_points" /><inkscape:path-effect
       simplify_just_coalesce="false"
       simplify_individual_paths="false"
       helper_size="5"
       smooth_angles="20"
       threshold="0.0009"
       steps="1"
       is_visible="true"
       id="path-effect828"
       effect="simplify" /><inkscape:path-effect
       simplify_just_coalesce="false"
       simplify_individual_paths="false"
       helper_size="5"
       smooth_angles="0"
       threshold="0.0056"
       steps="1"
       is_visible="false"
       id="path-effect836-4"
       effect="simplify" /><inkscape:path-effect
       simplify_just_coalesce="false"
       simplify_individual_paths="false"
       helper_size="5"
       smooth_angles="0"
       threshold="0.0056"
       steps="1"
       is_visible="false"
       id="path-effect836-8"
       effect="simplify" /><inkscape:path-effect
       effect="simplify"
       id="path-effect885-6"
       is_visible="false"
       steps="1"
       threshold="0.0056"
       smooth_angles="0"
       helper_size="5"
       simplify_individual_paths="false"
       simplify_just_coalesce="false" /><inkscape:path-effect
       effect="simplify"
       id="path-effect885-5"
       is_visible="false"
       steps="1"
       threshold="0.0056"
       smooth_angles="0"
       helper_size="5"
       simplify_individual_paths="false"
       simplify_just_coalesce="false" /><inkscape:path-effect
       effect="simplify"
       id="path-effect885-8"
       is_visible="false"
       steps="1"
       threshold="0.0056"
       smooth_angles="0"
       helper_size="5"
       simplify_individual_paths="false"
       simplify_just_coalesce="false" /><inkscape:path-effect
       simplify_just_coalesce="false"
       simplify_individual_paths="false"
       helper_size="5"
       smooth_angles="0"
       threshold="0.0056"
       steps="1"
       is_visible="false"
       id="path-effect836-0"
       effect="simplify" /><inkscape:path-effect
       simplify_just_coalesce="false"
       simplify_individual_paths="false"
       helper_size="5"
       smooth_angles="0"
       threshold="0.0018"
       steps="1"
       is_visible="true"
       id="path-effect832-7"
       effect="simplify" /><inkscape:path-effect
       interpolator_type="CubicBezierFit"
       is_visible="true"
       id="path-effect830-0"
       effect="interpolate_points" /><inkscape:path-effect
       simplify_just_coalesce="false"
       simplify_individual_paths="false"
       helper_size="5"
       smooth_angles="20"
       threshold="0.0009"
       steps="1"
       is_visible="true"
       id="path-effect828-8"
       effect="simplify" /><inkscape:path-effect
       simplify_just_coalesce="false"
       simplify_individual_paths="false"
       helper_size="5"
       smooth_angles="0"
       threshold="0.0056"
       steps="1"
       is_visible="false"
       id="path-effect836-4-7"
       effect="simplify" /><inkscape:path-effect
       simplify_just_coalesce="false"
       simplify_individual_paths="false"
       helper_size="5"
       smooth_angles="0"
       threshold="0.0056"
       steps="1"
       is_visible="false"
       id="path-effect836-8-3"
       effect="simplify" /><inkscape:path-effect
       effect="simplify"
       id="path-effect885-6-4"
       is_visible="false"
       steps="1"
       threshold="0.0056"
       smooth_angles="0"
       helper_size="5"
       simplify_individual_paths="false"
       simplify_just_coalesce="false" /><inkscape:path-effect
       effect="simplify"
       id="path-effect885-5-3"
       is_visible="false"
       steps="1"
       threshold="0.0056"
       smooth_angles="0"
       helper_size="5"
       simplify_individual_paths="false"
       simplify_just_coalesce="false" /></defs><sodipodi:namedview
     pagecolor="#ffffff"
     bordercolor="#666666"
     borderopacity="1"
     objecttolerance="10"
     gridtolerance="10"
     guidetolerance="10"
     inkscape:pageopacity="0"
     inkscape:pageshadow="2"
     inkscape:window-width="1920"
     inkscape:window-height="1017"
     id="namedview4520"
     showgrid="false"
     inkscape:zoom="0.59683014"
     inkscape:cx="2525.8443"
     inkscape:cy="160.84979"
     inkscape:window-x="-8"
     inkscape:window-y="-8"
     inkscape:window-maximized="1"
     inkscape:current-layer="g4526"
     inkscape:pagecheckerboard="0"
     inkscape:showpageshadow="2"
     inkscape:deskcolor="#d1d1d1"
     showguides="true"><sodipodi:guide
       position="2183.4582,84.655457"
       orientation="0,-1"
       id="guide234"
       inkscape:locked="false" /></sodipodi:namedview><g
     id="g4526"
     inkscape:groupmode="layer"
     inkscape:label="letreiro_BTT-JF"
     transform="matrix(1.3333333,0,0,-1.3333333,0,415.748)"><path
   d="m 0,376.7332 h -2.8346 v 48.1436 h 5.6692 v -48.1436 z m 2749.6063,21.2372 H 0 v 5.6693 h 2749.6063 z m 0,-21.2372 h -2.8346 v 48.1436 h 5.6692 v -48.1436 z"
   style="fill:#231f20;fill-opacity:1;fill-rule:nonzero;stroke:none"
   id="path4528"
   inkscape:connector-curvature="0" /><path
   d="m 2885.8391,0 v -2.8346 h -48.1436 v 5.6692 h 48.1436 z m -21.2372,311.811 V 0 h -5.6693 v 311.811 z m 21.2372,0 v -2.8346 h -48.1436 v 5.6693 h 48.1436 z"
   style="fill:#231f20;fill-opacity:1;fill-rule:nonzero;stroke:none"
   id="path4530"
   inkscape:connector-curvature="0" /><text
   transform="matrix(1,0,0,-1,1250.7789,428.9431)"
   style="font-variant:normal;font-weight:normal;font-size:81.698px;font-family:Arial;-inkscape-font-specification:ArialMT;writing-mode:lr-tb;fill:#231f20;fill-opacity:1;fill-rule:nonzero;stroke:none"
   id="text4534"
   y="0"><tspan
     x="0 45.424088 68.136131 113.56022 158.98431 181.69635"
     y="0"
     sodipodi:role="line"
     id="tspan4532">9,70 m</tspan></text>

<text
   transform="matrix(1,0,0,-1,2917.1268,132.3354)"
   style="font-variant:normal;font-weight:normal;font-size:81.698px;font-family:Arial;-inkscape-font-specification:ArialMT;writing-mode:lr-tb;fill:#231f20;fill-opacity:1;fill-rule:nonzero;stroke:none"
   id="text4538"
   y="0"><tspan
     x="0 37.2061 51.673 88.879097 134.30319 148.784"
     y="0"
     sodipodi:role="line"
     id="tspan4536">1,10 m</tspan></text>

<path
   d="M 0,311.8113 H 2749.6063 V -3e-4 L 0,-3e-4 Z"
   style="fill:#000000;fill-opacity:1;fill-rule:evenodd;stroke:#231f20;stroke-width:0.56690001;stroke-linecap:butt;stroke-linejoin:miter;stroke-miterlimit:22.92558479;stroke-dasharray:none;stroke-opacity:1"
   id="path4540"
   inkscape:connector-curvature="0" /><path
   d="m 954.2608,180.794 v 97.253 H 918.2866 V 163.5812 h 84.8755 l 4.7869,17.2128 z"
   style="fill:#ffffff;fill-opacity:1;fill-rule:nonzero;stroke:none"
   id="path4542"
   inkscape:connector-curvature="0" /><path
   d="m 463.9354,123.3507 -4.7767,17.2191 H 356.4513 l -4.7667,-17.2128 h 39.7131 V 26.104 h 35.9739 v 97.253 l 36.5638,-0.006 z"
   style="fill:#ffffff;fill-opacity:1;fill-rule:nonzero;stroke:none"
   id="path4544"
   inkscape:connector-curvature="0" /><path
   d="m 842.8805,252.2667 0.0422,0.004 -0.0102,0.0261 0.0102,0.006 -0.0102,0.007 -7.1558,25.7819 h -0.0204 -93.7346 l -4.7812,-17.2125 h 66.7902 l 1.0525,-3.7939 -67.8427,-67.678 7.1603,-25.8106 93.7652,0.0258 4.7767,17.21 -66.8015,0.0192 -1.0426,3.7698 67.8019,67.6457 z"
   style="fill:#ffffff;fill-opacity:1;fill-rule:nonzero;stroke:none"
   id="path4546"
   inkscape:connector-curvature="0" /><path
   d="m 652.2826,209.484 12.5107,45.0638 11.736,-42.3479 z m 37.7402,-45.9054 h 35.9626 L 694.2348,278.047 H 635.3271 L 603.5808,163.5786 h 35.964 l 7.7295,27.8637 33.9605,3.8058 z"
   style="fill:#ffffff;fill-opacity:1;fill-rule:nonzero;stroke:none"
   id="path4548"
   inkscape:connector-curvature="0" /><path
   d="m 1123.0404,209.484 12.5121,45.0638 11.7465,-42.3479 z m 37.7402,-45.9054 h 35.9742 l -31.752,114.4684 h -58.9062 l -31.7667,-114.4684 h 35.9787 l 7.7148,27.8637 33.9794,3.8058 z"
   style="fill:#ffffff;fill-opacity:1;fill-rule:nonzero;stroke:none"
   id="path4550"
   inkscape:connector-curvature="0" /><path
   d="m 1083.2357,72.1894 12.502,45.0635 11.7567,-42.3443 z m 37.7504,-45.9029 h 35.964 l -31.752,114.4692 h -58.9062 L 1034.5354,26.2865 h 35.9626 l 7.7295,27.8646 33.9605,3.8086 z"
   style="fill:#ffffff;fill-opacity:1;fill-rule:nonzero;stroke:none"
   id="path4552"
   inkscape:connector-curvature="0" /><path
   d="m 894.7826,163.635 h -35.9743 v 114.4137 h 35.9743 z"
   style="fill:#ffffff;fill-opacity:1;fill-rule:nonzero;stroke:none"
   id="path4554"
   inkscape:connector-curvature="0" /><path
   d="m 1057.0425,163.635 h -35.9728 v 114.4137 h 35.9728 z"
   style="fill:#ffffff;fill-opacity:1;fill-rule:nonzero;stroke:none"
   id="path4556"
   inkscape:connector-curvature="0" /><path
   d="m 964.0809,77.4774 36.6468,4.0547 5.0128,18.0416 -41.6596,-4.6125 v 28.5755 h 53.6884 l -4.7769,17.219 H 928.1083 V 26.2874 h 84.8841 l 4.7769,17.219 h -53.6884 z"
   style="fill:#ffffff;fill-opacity:1;fill-rule:nonzero;stroke:none"
   id="path4558"
   inkscape:connector-curvature="0" /><path
   d="m 905.8881,123.5384 -4.7755,17.2154 H 798.4097 l -4.7812,-17.2126 h 39.723 v -97.253 h 35.9626 v 97.253 l 36.574,-0.003 z"
   style="fill:#ffffff;fill-opacity:1;fill-rule:nonzero;stroke:none"
   id="path4560"
   inkscape:connector-curvature="0" /><path
   d="m 555.8386,51.3383 c 0,-7.818 -0.1894,-7.831 -15.1053,-7.831 h -9.3118 c -14.9159,0 -15.1052,0.013 -15.1052,7.831 v 64.074 c 0,8.0076 0.0408,8.1252 14.4632,8.1289 h 10.5962 c 14.4323,-0.004 14.4629,-0.1213 14.4629,-8.1289 z m 35.9742,75.5424 c 0,8.7183 -2.5682,13.8759 -22.9337,13.8759 H 503.28 c -20.3695,0 -22.932,-5.1576 -22.932,-13.8759 V 40.1678 c 0,-8.7256 2.5625,-13.8796 22.932,-13.8796 h 65.5991 c 20.3655,0 22.9337,5.154 22.9337,13.8796 z"
   style="fill:#ffffff;fill-opacity:1;fill-rule:nonzero;stroke:none"
   id="path4562"
   inkscape:connector-curvature="0" /><path
   d="m 1296.7877,278.0977 v -91.6353 l -25.4188,91.6353 h -56.7703 V 163.5868 h 36.0045 v 91.6345 l 25.4189,-91.6345 h 56.7689 v 114.5109 z"
   style="fill:#ffffff;fill-opacity:1;fill-rule:nonzero;stroke:none"
   id="path4564"
   inkscape:connector-curvature="0" /><path
   d="m 1276.4631,140.8003 -22.9641,-82.7499 -22.9481,82.7499 h -55.1367 V 26.2891 h 36.0045 v 91.6381 l 25.429,-91.6381 h 33.3128 l 25.4245,91.6475 V 26.2891 h 35.9989 v 114.5112 z"
   style="fill:#ffffff;fill-opacity:1;fill-rule:nonzero;stroke:none"
   id="path4566"
   inkscape:connector-curvature="0" /><path
   d="m 653.2654,123.7263 h 24.2685 c 15.1359,0 15.1359,0 15.1359,-8.1408 v -11.2816 c 0,-5.4842 0,-5.6738 -8.5768,-6.6333 h -0.0102 L 653.2654,94.318 Z m 64.3192,-39.818 c 8.7211,0.9788 11.1203,2.9416 11.1203,8.771 v 34.3865 c 0,8.735 -2.5682,13.9054 -22.9742,13.9054 H 617.2299 V 26.2874 l 36.0355,0.0065 v 50.5145 z"
   style="fill:#ffffff;fill-opacity:1;fill-rule:nonzero;stroke:none"
   id="path4568"
   inkscape:connector-curvature="0" /><path
   d="m 553.9329,240.3451 c 0,-5.4715 0,-5.6574 -8.5564,-6.6133 l -0.0102,-0.004 -30.7562,-3.3461 v 30.5085 h 24.2175 c 15.1053,0 15.1053,0 15.1053,-8.1213 v -12.4242 z m 35.952,-7.6811 v 31.5596 c 0,8.7156 -2.5667,13.8733 -22.9218,13.8733 h -52.353 -35.9584 V 163.6665 l 35.9584,0.004 v 47.5248 l 30.7562,-3.3432 h 0.0102 c 8.5564,-0.9558 8.5564,-1.1483 8.5564,-6.6161 v -37.4314 h 35.952 v 45.4745 c 0,5.8107 -2.3876,7.7726 -11.0837,8.7488 l -26.6562,2.9407 26.6562,2.944 c 8.6961,0.9791 11.0837,2.9353 11.0837,8.7517"
   style="fill:#ffffff;fill-opacity:1;fill-rule:nonzero;stroke:none"
   id="path4570"
   inkscape:connector-curvature="0" /><path
   d="m 427.4708,240.3451 c 0,-5.4715 0,-5.6574 -8.5623,-6.6133 l -0.004,-0.004 -30.7505,-3.3461 v 30.5085 h 24.2118 c 15.1053,0 15.1053,0 15.1053,-8.1213 v -12.4242 z m 0,-39.1094 v -12.274 c 0,-8.1215 0,-8.1215 -15.1053,-8.1215 h -24.2118 v 30.3548 l 30.7505,-3.3432 h 0.004 c 8.5623,-0.9558 8.5623,-1.1483 8.5623,-6.6161 z m 35.9521,31.4283 v 31.5596 c 0,8.7156 -2.5668,13.8733 -22.9275,13.8733 h -52.3417 -35.958 V 163.6665 l 35.958,0.004 v -0.0363 h 52.3417 c 20.3607,0 22.9275,5.1514 22.9275,13.8705 v 31.7744 c 0,5.8107 -2.3876,7.7726 -11.0823,8.7488 l -26.6579,2.9407 26.6579,2.944 c 8.6947,0.9791 11.0823,2.9353 11.0823,8.7517"
   style="fill:#ffffff;fill-opacity:1;fill-rule:nonzero;stroke:none"
   id="path4572"
   inkscape:connector-curvature="0" /><path
   d="M 135.9043,26.2865 258.929,135.9737 V 26.2865 Z"
   style="fill:#6785a8;fill-opacity:1;fill-rule:nonzero;stroke:none"
   id="path4574"
   inkscape:connector-curvature="0" /><path
   d="M 258.929,135.9717 135.9043,26.2865 H 83.8919 v 144.7121 l 120.1218,107.0991 h 54.9153 z"
   style="fill:#edd888;fill-opacity:1;fill-rule:nonzero;stroke:none"
   id="path4576"
   inkscape:connector-curvature="0" /><path
   d="M 204.0148,278.0977 83.8919,170.9986 v 107.0991 z"
   style="fill:#618b73;fill-opacity:1;fill-rule:nonzero;stroke:none"
   id="path4578"
   inkscape:connector-curvature="0" /><path
   d="m 117.4292,265.532 c -0.2501,0.8292 -0.3561,1.1095 -0.0916,1.7008 0.2676,0.5902 1.0244,0.8255 1.2671,1.2011 0.2571,0.3719 1.2889,1.4167 1.6858,1.5341 0.4039,0.1176 1.0723,-0.2155 1.4065,-0.1276 0.3385,0.1043 2.575,1.7986 3.4537,1.8774 0.8737,0.0748 1.2527,-0.7736 1.7992,-0.6922 0.5289,0.0813 1.4037,1.129 1.8513,1.2271 0.4448,0.0952 2.7187,-0.1111 3.1153,-0.3915 0.4039,-0.284 0.7381,-0.2545 0.83,-1.5341 0.0841,-1.2835 0.0436,-2.1478 0.2352,-2.4588 0.2019,-0.3163 1.7961,-0.0683 1.7147,-1.1582 -0.0768,-1.0874 -0.3373,-1.3935 -0.2353,-1.9525 0.1001,-0.5581 0.8309,-1.5795 0.7685,-2.503 -0.0624,-0.9207 -1.165,-1.512 -1.8513,-1.8414 -0.6829,-0.3265 -3.1153,-1.2963 -3.0787,-1.9783 0.0374,-0.682 0.3716,-4.015 0.1363,-4.3611 -0.2239,-0.3625 -1.3515,-0.3886 -1.3515,-0.3886 -0.9882,-7.4849 5.1675,-13.1023 6.3952,-19.3731 0.6684,-3.4118 -0.324,-6.3394 0.3226,-8.1575 0.199,-0.5619 3.5924,-3.4274 5.9621,-7.5802 2.3655,-4.1547 2.8684,-7.7133 2.8684,-7.7133 3.8089,0.1859 8.062,-3.3166 9.0357,-5.7416 0,0 2.1127,0.3915 4.2429,0.1434 -0.2832,1.5701 -1.3192,7.5634 -1.3192,9.9664 0,2.7714 0.5737,14.7347 12.8265,13.7262 12.4123,-1.0216 10.5392,-10.802 10.4538,-11.8395 0,0 1.9908,0.0686 1.7524,-2.9285 -0.301,-3.5577 -3.056,-3.4662 -3.056,-4.214 0,-0.754 0.2645,-4.8376 0.2645,-4.8376 0,0 1.9355,-0.7021 2.3323,-0.5717 0.3935,0.1304 2.5716,2.2496 4.1136,3.2193 1.5319,0.966 3.71,0.6625 4.2098,1.0049 0.4924,0.3588 -0.2979,4.4952 2.1271,9.5584 2.4313,5.0689 6.6628,7.7652 6.9752,8.549 0.5652,1.4426 0.0655,6.6558 0.9661,10.527 1.6234,6.9917 7.8122,8.0893 8.312,15.7989 0,0 -1.5389,0.4831 -1.5868,0.8357 -0.048,0.356 0.5476,2.2039 0.5476,2.5566 0,0.3551 -1.5316,1.8932 -1.9834,2.5491 -0.4448,0.6625 -2.7737,1.4131 -2.9758,1.9423 -0.1947,0.5321 0.2021,1.9384 0.25,3.036 0.055,1.1001 -0.2937,1.9386 -0.2937,2.6861 0,0.7503 0.7892,0.8393 1.2306,1.0151 0.4552,0.1703 1.186,0.0685 2.2407,0.0462 0,0 1.234,1.6285 1.6784,2.7314 0.4479,1.0939 1.6858,1.006 2.3324,0.9207 0.6352,-0.0879 1.4836,-1.4553 2.0792,-1.6747 0.5947,-0.2211 2.4749,-0.0482 3.2683,-0.3061 0.7935,-0.2713 2.1824,-2.5495 2.7301,-2.8205 0.5394,-0.2648 2.1742,0.705 2.5302,-1.4981 0.129,-0.7838 -0.4998,-1.3224 -0.4998,-1.5341 0,-0.2223 0.3425,-0.5358 0.4924,-2.3837 0.1469,-1.8468 -1.3325,-3.7927 -1.6857,-4.5765 -0.3487,-0.7957 -0.1508,-1.8119 -0.1508,-3.1692 0,-1.3648 -2.1306,-1.4527 -2.1306,-1.4527 -0.1425,-2.2986 -1.2858,-15.1492 -1.8292,-19.5075 -0.5436,-4.3582 -3.8599,-7.8375 -4.0149,-8.5461 -0.1469,-0.7013 0.155,-1.3252 0,-1.9783 -0.1469,-0.6625 -0.6381,-0.9689 -0.8881,-1.9387 -0.2469,-0.966 1.9355,-7.397 -2.1782,-16.6906 -4.1182,-9.2929 -9.3668,-13.0765 -10.2631,-14.4377 -0.8923,-1.3649 -2.2774,-8.373 -3.1737,-10.0472 -0.8923,-1.6681 -3.4486,-4.0249 -5.3444,-5.0142 -0.7237,-4.1813 -4.8115,-5.2259 -6.2036,-8.1805 -1.389,-2.9471 -2.02,-13.6216 -2.0722,-15.4658 -0.0479,-1.8476 1.0361,-8.2814 1.0361,-8.8532 0,0 1.2192,-0.1825 1.1089,-1.1817 -0.051,-0.5709 0.3864,-2.0069 0.4156,-2.5815 0.0405,-0.5746 1.2744,-2.7556 1.6055,-3.4674 0.33,-0.7078 1.065,-3.058 1.3076,-3.5475 0.2345,-0.4839 1.5421,-1.9951 1.6784,-2.6122 0.1355,-0.6199 0.2427,-1.9125 0.2271,-2.3992 -0.007,-0.4765 1.1985,-4.1159 1.4774,-4.9153 0.2823,-0.7968 1.3297,-4.6516 1.4026,-5.576 0.0842,-0.9272 1.0652,-3.3681 1.1537,-3.8095 0.0842,-0.4368 0.7194,-1.237 0.8671,-1.5471 0.1429,-0.3135 0.1063,-1.2436 0.0989,-1.5962 -0.007,-0.3563 0.3821,-1.2731 0.3821,-1.7626 0.007,-1.0151 -0.6392,-1.3122 -0.6392,-1.3122 -0.1729,-0.7477 -0.4152,-5.7424 0.1106,-6.5871 0.5216,-0.8422 3.3931,-3.3758 5.5494,-7.2862 2.2887,-4.1593 1.9179,-21.9427 2.2334,-23.3167 0.3197,-1.3714 2.6042,-5.2494 2.8321,-5.9932 0.2353,-0.7543 -0.0332,-3.483 -0.055,-4.4527 -0.0221,-0.9697 2.431,-6.4698 2.3987,-7.8412 -0.0332,-1.3637 -1.0576,-2.9701 -1.2671,-3.2312 -0.2061,-0.2608 -0.559,-1.4137 -1.1129,-2.0143 -0.5624,-0.6069 -2.1461,-1.0834 -2.7332,-1.0772 -0.5955,0.0102 -1.3005,-0.9105 -1.7076,-1.2563 -0.4039,-0.3498 -1.0142,-0.5581 -1.3702,-0.731 -0.349,-0.1704 -0.4082,-1.2215 -2.1855,-1.0486 -1.789,0.1639 -2.4906,3.9595 -2.7445,5.6344 -0.2645,1.6841 1.6679,7.8965 1.7302,8.6468 0.074,0.7515 -1.0318,2.4846 -1.0984,3.7645 -0.0697,1.2823 0.9924,4.1221 0.9547,5.053 -0.0218,0.9235 -0.5029,1.8116 -1.7294,4.0343 -1.2421,2.2291 -5.6642,8.2519 -7.1521,10.0868 -1.495,1.8311 -2.126,6.5548 -2.2187,6.9103 -0.0915,0.3563 -1.0652,1.038 -1.6483,1.6154 -0.584,0.5848 -1.2348,2.1773 -1.4701,2.579 -0.2384,0.4053 -2.5271,2.2532 -3.2507,3.2349 -0.7195,0.9828 -1.9063,3.2644 -2.0781,4.2276 0,0 -1.8338,0.2092 -3.0124,0.6239 -1.1869,0.4144 -1.6897,1.6183 -1.8802,2.0134 -0.1916,0.4014 -0.2948,2.3474 -0.2801,2.7814 0.008,0.4405 -0.2531,2.207 -0.3883,2.6963 -0.1367,0.483 -0.9998,1.6906 -1.1903,2.0923 -0.1916,0.3988 -0.9411,2.1282 -1.0808,2.5296 -0.1395,0.3988 -1.0058,1.512 -1.2005,1.8249 -0.1874,0.3099 -0.7455,2.2689 -1.1347,2.8925 -0.25,0.4107 -1.0914,7.2561 -1.8661,8.7191 -0.809,-2.9673 0.631,-7.6717 0.8997,-10.3643 0.0624,-0.6109 0.2427,-5.4805 0.2977,-5.8368 0.0439,-0.3527 -0.0698,-0.6792 -0.0698,-1.0772 0,-0.398 0.1979,-0.9011 0.2416,-1.2076 0.0552,-0.3098 -0.1905,-1.0768 -0.1497,-1.8283 0.0581,-0.7503 0.4039,-0.3526 0.5029,-1.7164 0.0958,-1.3649 -2.1816,-1.4989 -2.1816,-1.4989 0.4,-1.6325 -2.1345,-7.8866 -2.226,-9.9066 -0.099,-2.0273 2.9936,-6.963 3.7579,-10.1265 1.5199,-6.2569 -5.4769,-13.3543 -0.6874,-24.0018 0.5697,-1.277 2.1274,-2.1977 2.527,-2.9933 0.3969,-0.794 -0.2052,-2.1218 0.099,-2.886 1.2526,-3.1073 2.5602,-3.4931 2.4281,-5.699 -0.2384,-3.8688 -5.1091,-3.5227 -5.8476,-3.8365 -0.7381,-0.2996 -2.4278,-3.9166 -3.0705,-4.2655 -0.6465,-0.3527 -1.8844,-0.3527 -2.531,-0.705 -0.6466,-0.3563 -1.2047,-1.4695 -3.0373,-1.427 -1.8261,0.0454 -2.7593,1.7368 -3.0121,1.9591 -0.2427,0.2117 -2.3698,0.6522 -3.4121,1.671 -0.4892,0.4793 0.1021,1.3674 -0.1032,2.2031 -0.1944,0.8291 -0.1145,2.0338 1.1934,2.1577 0.4519,0.0428 1.6387,0.483 2.1824,0.6987 0.5434,0.2248 1.976,2.2456 2.5707,2.9084 0.5956,0.6559 2.6779,3.1238 3.1255,3.653 0.449,0.5284 0.449,1.1492 0.148,2.5557 -0.3019,1.4102 -8.4266,17.17 -10.5015,24.1784 -2.0795,6.9953 -0.9485,11.882 -0.9924,12.3233 -0.055,0.4405 -0.5434,1.7655 -0.6497,2.4679 -0.0916,0.705 0.5468,1.9774 0.4989,2.5557 -0.051,0.5709 -1.3329,6.6067 -2.0784,7.4849 -0.7455,0.8816 -5.2018,2.6019 -5.3518,3.7437 -0.1511,1.1398 0.8371,2.1087 0.8966,2.5954 0.0394,0.4867 -1.1506,2.2031 -1.1506,2.7326 0,0.5284 0.2018,2.7249 0.254,3.4764 0.051,0.7503 -1.2889,7.0444 -1.6387,7.8409 -0.3416,0.7895 -0.0989,11.4443 0.1029,13.383 0.199,1.9357 0.6352,5.4583 0.6684,6.0689 0.0334,0.8938 -0.2747,1.8119 -0.2018,2.4409 0.0666,0.6339 0.7495,1.3028 1.1494,1.3326 0.4122,0.0454 0.2571,1.0834 0.1948,2.2587 -0.0627,1.1715 0.8932,2.7776 1.1202,4.1686 0.2353,1.4037 1.5503,22.6607 1.565,24.3811 0.007,1.707 -1.4984,4.6284 -1.7118,6.0318 -0.2123,1.4139 0.0989,3.2323 0.1292,3.4441 0.0145,0.2157 -1.1494,2.4188 -1.771,3.8421 -0.6135,1.423 -0.4771,5.8266 -0.6789,7.1387 -0.199,1.3156 -3.9017,4.5995 -7.6476,10.0415 -3.7463,5.4547 -3.1476,12.7018 -3.005,13.7296 -0.3374,0.0751 -2.4937,1.7989 -2.0024,4.0085 -8.4223,8.0529 -4.1242,21.0415 -2.861,31.1505 -0.6466,-0.0258 -1.2121,0.1666 -1.4143,0.4507 -0.3486,0.4802 0.6466,3.7477 0.603,4.5802 -3.1632,1.4879 -0.6466,4.7035 -0.7019,5.8102 -0.4371,0.2219 -0.8441,0.3228 -1.091,1.1593"
   style="fill:#000000;fill-opacity:1;fill-rule:nonzero;stroke:none"
   id="path4580"
   inkscape:connector-curvature="0" /><path
   d="m 1625.6334,292.92861 c 76.0254,0 137.656,-61.3474 137.656,-137.0231 0,-75.675701 -61.6306,-137.023101 -137.656,-137.023101 -76.0254,0 -137.6561,61.3474 -137.6561,137.023101 0,75.6757 61.6307,137.0231 137.6561,137.0231"
   style="fill:#ffffff;fill-opacity:1;fill-rule:evenodd;stroke:none;stroke-width:0.992623"
   id="path4582"
   inkscape:connector-curvature="0" /><path
   d="m 1625.6334,272.3754 c 63.0272,0 114.1208,-51.0936 114.1208,-114.1208 0,-63.0275 -51.0936,-114.1212 -114.1208,-114.1212 -63.0275,0 -114.1211,51.0937 -114.1211,114.1212 0,63.0272 51.0936,114.1208 114.1211,114.1208"
   style="fill:#ffffff;fill-opacity:1;fill-rule:evenodd;stroke:none"
   id="path4584"
   inkscape:connector-curvature="0" /><path
   d="m 1511.2177,126.1814 c 2.2958,0 4.1568,-1.8212 4.1568,-4.0683 0,-2.2467 -1.861,-4.0682 -4.1568,-4.0682 -2.2957,0 -4.157,1.8215 -4.157,4.0682 0,2.2471 1.8613,4.0683 4.157,4.0683"
   style="fill:#ffffff;fill-opacity:1;fill-rule:evenodd;stroke:none"
   id="path4588"
   inkscape:connector-curvature="0" /><path
   d="m 1522.4801,112.8081 2.355,-4.9093 c 0.6364,-1.3272 1.0516,-2.3811 1.2447,-3.168 0.191,-0.7826 0.2341,-1.4224 0.1267,-1.9159 -0.1103,-0.4947 -0.3371,-0.8995 -0.6727,-1.2203 -0.3407,-0.3187 -0.9295,-0.6781 -1.7691,-1.08 l -1.1673,-0.5585 c -0.8535,-0.4087 -1.5366,-0.5853 -2.0463,-0.5232 -0.5102,0.0569 -1.0304,0.3662 -1.554,0.9218 -0.5255,0.5593 -1.0431,1.3705 -1.5525,2.433 l -0.627,1.307 -5.4097,-2.5894 -2.3417,4.8818 z m 0.052,-5.9777 -3.4172,-1.6356 c 0.06,-0.1411 0.1146,-0.261 0.1619,-0.3597 0.2143,-0.4462 0.4411,-0.7163 0.6829,-0.8147 0.2367,-0.0952 0.6063,-0.0252 1.1038,0.2132 l 1.1049,0.529 c 0.4578,0.2191 0.7101,0.4611 0.7521,0.7287 0.044,0.2639 -0.087,0.711 -0.3884,1.3391 z m 5.1891,-5.6704 2.1648,-3.1533 c 1.4429,-2.1021 2.363,-3.564 2.7573,-4.3877 0.3943,-0.824 0.5133,-1.6342 0.3574,-2.4313 -0.153,-0.7951 -0.7545,-1.5525 -1.7985,-2.2677 -0.9539,-0.6534 -1.7091,-0.9266 -2.2649,-0.8192 -0.5542,0.1037 -1.1997,0.623 -1.9338,1.5542 0.4476,-0.9896 0.6471,-1.7288 0.5921,-2.213 -0.053,-0.4822 -0.1672,-0.8365 -0.337,-1.0593 -0.1678,-0.2262 -0.7481,-0.6766 -1.7376,-1.3547 l -3.2392,-2.2186 -2.8409,4.1391 4.0813,2.7958 c 0.6565,0.4499 1.0126,0.8 1.071,1.0525 0.061,0.2489 -0.1191,0.6778 -0.5383,1.2881 l -5.5364,-3.7928 -3.0645,4.4643 z m 0.9709,-5.8986 -2.7295,-1.8697 c 0.3419,-0.4984 0.6293,-0.8113 0.8637,-0.9431 0.2347,-0.1313 0.6248,-0.0131 1.165,0.3571 l 0.6744,0.4621 c 0.3906,0.2673 0.5794,0.5403 0.5695,0.8149 -0.01,0.2747 -0.1936,0.6696 -0.5431,1.1787 z m 8.4163,-21.138 c -1.1628,-0.9382 -2.0146,-1.5641 -2.5605,-1.8754 -0.546,-0.3166 -1.1801,-0.4342 -1.9046,-0.3549 -0.7254,0.0791 -1.4732,0.3765 -2.2417,0.8878 -0.7681,0.5117 -1.5199,1.2223 -2.2555,2.132 -0.6999,0.8648 -1.2231,1.7209 -1.5772,2.5724 -0.354,0.8513 -0.5011,1.6509 -0.4325,2.393 0.066,0.7455 0.3058,1.3505 0.7151,1.8159 0.4142,0.464 1.2152,1.1778 2.4047,2.1382 l 1.9797,1.5976 c 1.1628,0.9388 2.0143,1.5644 2.5608,1.8757 0.5457,0.3163 1.1798,0.434 1.9049,0.3549 0.7245,-0.0794 1.4723,-0.3765 2.2408,-0.8878 0.7684,-0.5117 1.5205,-1.2223 2.2558,-2.1317 0.7001,-0.8654 1.2231,-1.7215 1.5772,-2.573 0.3543,-0.8512 0.5014,-1.6503 0.4325,-2.3927 -0.066,-0.7455 -0.3058,-1.3507 -0.7151,-1.8162 -0.4145,-0.4637 -1.215,-1.1775 -2.4047,-2.1379 z m 0.3952,7.2783 c 0.536,0.4328 0.847,0.7514 0.932,0.955 0.083,0.2018 0.023,0.4297 -0.1806,0.6817 -0.1737,0.2146 -0.3668,0.3291 -0.5822,0.3464 -0.2103,0.0161 -0.616,-0.2152 -1.2104,-0.6954 l -5.3997,-4.3582 c -0.6704,-0.5412 -1.0548,-0.9133 -1.1503,-1.114 -0.098,-0.203 -0.035,-0.4397 0.1854,-0.7121 0.2259,-0.2792 0.462,-0.3872 0.7055,-0.32 0.2438,0.0672 0.7058,0.3781 1.3859,0.9272 z m 7.4545,-2.9931 6.7966,-6.1249 -1.9899,-2.2039 -2.7737,2.4993 -1.9017,-2.1064 2.4607,-2.2178 -1.8893,-2.092 -2.4607,2.2175 -4.182,-4.6309 -4.0232,3.6258 z m 2.4225,-18.1437 -2.0279,-2.2459 -2.9098,2.6226 2.0277,2.2459 z m 15.2595,3.2346 3.3528,-1.8443 c 2.2351,-1.2293 3.7148,-2.1217 4.4382,-2.6804 0.7228,-0.5584 1.1942,-1.2285 1.4136,-2.0109 0.2214,-0.779 0.025,-1.7254 -0.5856,-2.8335 -0.5579,-1.012 -1.1092,-1.5951 -1.6546,-1.749 -0.5414,-0.1562 -1.3515,0.0176 -2.4262,0.5193 0.845,-0.6828 1.3561,-1.2532 1.5248,-1.7104 0.1695,-0.4547 0.2273,-0.8223 0.1757,-1.0976 -0.048,-0.2775 -0.3631,-0.9402 -0.9422,-1.991 l -1.8938,-3.4365 -4.4011,2.4208 2.3868,4.3305 c 0.3841,0.6968 0.5442,1.1696 0.483,1.4213 -0.057,0.2497 -0.4116,0.5516 -1.061,0.9085 l -3.2375,-5.8748 -4.7468,2.611 z m 3.5223,-4.8325 -1.5962,-2.8965 c 0.5301,-0.2914 0.9275,-0.4419 1.1962,-0.4541 0.2685,-0.0116 0.5636,0.2693 0.8796,0.8422 l 0.3946,0.716 c 0.2279,0.4142 0.2741,0.7427 0.1412,0.9836 -0.1324,0.241 -0.4737,0.5108 -1.0154,0.8088 z m 14.4958,-4.3637 -6.184,-13.5142 -4.9281,2.2505 6.1841,13.5141 z m 12.1847,-11.4871 -5.0788,1.8853 0.8994,2.4182 c 0.2622,0.7047 0.3711,1.1617 0.3297,1.3777 -0.043,0.2126 -0.2483,0.3892 -0.614,0.5247 -0.4107,0.1525 -0.7132,0.1445 -0.9025,-0.0252 -0.1905,-0.1732 -0.4184,-0.6098 -0.6803,-1.3142 L 1584.393,41.22 c -0.252,-0.678 -0.3583,-1.1395 -0.3246,-1.389 0.034,-0.2466 0.2466,-0.4425 0.633,-0.5856 0.3742,-0.1392 0.659,-0.1279 0.8515,0.038 0.1916,0.1627 0.4303,0.6284 0.7152,1.3943 l 0.6514,1.7524 5.0791,-1.8853 -0.2021,-0.5431 c -0.5369,-1.444 -1.0616,-2.4149 -1.569,-2.9112 -0.5085,-0.4995 -1.3374,-0.7929 -2.4806,-0.8861 -1.1474,-0.0921 -2.4312,0.1275 -3.8616,0.6582 -1.4834,0.5508 -2.6368,1.1959 -3.46,1.9392 -0.8183,0.7412 -1.2622,1.5105 -1.3209,2.3068 -0.059,0.7974 0.1644,1.8763 0.6718,3.2411 l 1.5134,4.068 c 0.3728,1.0035 0.7016,1.7365 0.9828,2.2034 0.2854,0.4655 0.7492,0.8442 1.4026,1.1296 0.6488,0.2866 1.4468,0.4082 2.393,0.3609 0.9462,-0.0474 1.9692,-0.2767 3.0702,-0.6855 1.4916,-0.5536 2.6484,-1.2166 3.4682,-1.9919 0.8169,-0.771 1.2631,-1.521 1.3422,-2.2515 0.075,-0.7294 -0.1293,-1.7428 -0.6126,-3.0427 l -0.4927,-1.3238 z m 12.7948,4.1573 -0.1307,-15.1773 -5.402,1.1713 0.2789,2.6691 -1.9063,0.4136 -0.8535,-2.5447 -5.4708,1.1863 5.8368,13.9397 z m -4.8365,-8.7358 c 0.1049,1.7008 0.2818,3.7961 0.5275,6.29 -1.129,-2.6773 -1.9017,-4.6434 -2.323,-5.9008 z m 8.5331,7.9608 3.816,-0.292 c 2.5441,-0.195 4.2611,-0.3954 5.1506,-0.6049 0.8901,-0.2095 1.5962,-0.6247 2.12,-1.2458 0.5244,-0.6177 0.7382,-1.5605 0.6412,-2.8216 -0.088,-1.1517 -0.3486,-1.9109 -0.7812,-2.2765 -0.4283,-0.366 -1.2376,-0.5426 -2.4239,-0.5304 1.0522,-0.2721 1.7538,-0.58 2.0968,-0.9266 0.3427,-0.3436 0.5476,-0.6543 0.6148,-0.9264 0.071,-0.2724 0.059,-1.0063 -0.033,-2.202 l -0.2999,-3.9115 -5.0091,0.3835 0.3782,4.9295 c 0.061,0.7928 0.011,1.2895 -0.1494,1.4933 -0.1559,0.2038 -0.6032,0.3319 -1.3422,0.3886 l -0.5128,-6.6866 -5.4029,0.4135 1.1367,14.8159 z m 5.2087,-2.9421 -0.2528,-3.2967 c 0.6029,-0.0465 1.0272,-0.019 1.277,0.0811 0.2494,0.1003 0.4013,0.4779 0.4515,1.1304 l 0.063,0.8147 c 0.036,0.4714 -0.058,0.7895 -0.279,0.9542 -0.2199,0.1644 -0.6431,0.269 -1.2594,0.3163 z m 8.6834,1.7904 4.0399,0.233 c 2.6039,0.1502 4.3727,0.1675 5.3019,0.0487 0.9292,-0.1193 1.6455,-0.36 2.1453,-0.7234 0.4997,-0.3631 0.8266,-0.7801 0.9723,-1.2515 0.1462,-0.4745 0.2616,-1.4119 0.343,-2.8185 l 0.3002,-5.195 c 0.077,-1.3314 0.041,-2.2275 -0.1086,-2.6844 -0.1488,-0.4604 -0.4346,-0.8311 -0.8535,-1.1092 -0.423,-0.2784 -0.951,-0.4845 -1.5886,-0.6248 -0.6329,-0.1369 -1.5973,-0.2426 -2.8887,-0.3172 l -6.806,-0.3923 z m 5.5559,-2.2201 0.5649,-9.7708 c 0.7659,0.0443 1.232,0.184 1.3944,0.4162 0.1661,0.2352 0.2188,0.8467 0.1618,1.8374 l -0.3333,5.7702 c -0.039,0.6721 -0.095,1.1015 -0.1627,1.2889 -0.072,0.1874 -0.2115,0.3172 -0.4309,0.3923 -0.2157,0.0785 -0.6117,0.0995 -1.1942,0.0658 z m 22.4872,-3.3477 c 0.2832,-1.4661 0.436,-2.5115 0.455,-3.1391 0.023,-0.6305 -0.1704,-1.2444 -0.5811,-1.8465 -0.4108,-0.6024 -1.0242,-1.1225 -1.8372,-1.5599 -0.8129,-0.4374 -1.794,-0.7668 -2.9435,-0.9885 -1.093,-0.2109 -2.0953,-0.2701 -3.014,-0.1828 -0.9187,0.0873 -1.6946,0.3336 -2.3179,0.7427 -0.6282,0.4079 -1.05,0.9037 -1.2691,1.4834 -0.2154,0.5833 -0.4703,1.6248 -0.76,3.1249 l -0.4824,2.4962 c -0.2835,1.4666 -0.4363,2.5115 -0.4547,3.1396 -0.024,0.6299 0.1701,1.2441 0.5808,1.8465 0.4105,0.6021 1.0242,1.1222 1.8372,1.5596 0.8127,0.4371 1.7943,0.7671 2.9432,0.9887 1.0936,0.2107 2.0956,0.2699 3.0143,0.1823 0.9185,-0.0876 1.694,-0.3331 2.3176,-0.7421 0.6282,-0.4082 1.05,-0.904 1.2694,-1.4837 0.2154,-0.5833 0.47,-1.6248 0.76,-3.1249 z m -6.2464,3.7666 c -0.1307,0.6761 -0.2662,1.0999 -0.4065,1.2705 -0.1397,0.1676 -0.3688,0.2223 -0.6871,0.1608 -0.2713,-0.0525 -0.4632,-0.1687 -0.5797,-0.3507 -0.1128,-0.1783 -0.099,-0.6443 0.046,-1.3944 l 1.3156,-6.8091 c 0.1635,-0.8455 0.3118,-1.3589 0.4444,-1.5375 0.1333,-0.1814 0.3719,-0.2375 0.7164,-0.1712 0.3529,0.0683 0.5592,0.2259 0.6142,0.4723 0.055,0.2466 0,0.7999 -0.1686,1.6577 l -1.2949,6.7016 z m 30.0552,12.869 5.6931,-13.7276 -4.3736,-1.8105 -3.856,9.2625 2.1059,-9.9867 -3.0614,-1.2674 -5.5922,8.3001 3.7451,-9.0646 -4.3744,-1.8102 -5.6931,13.7276 6.4602,2.6739 c 0.5263,-0.7548 1.1304,-1.6503 1.8079,-2.6781 l 2.1543,-3.1918 -1.5202,6.8808 z m 9.714,5.2674 10.2135,-11.2366 -4.7636,-2.8017 -1.6084,2.1495 -1.6809,-0.9884 1.1015,-2.4478 -4.8242,-2.8374 -5.1815,14.1961 z m 2.3814,-9.6954 c -1.0783,1.3204 -2.3715,2.9795 -3.8849,4.978 0.989,-2.7318 1.7569,-4.6999 2.3018,-5.9091 z m 1.6101,12.1598 3.1507,2.1705 c 2.1005,1.4471 3.5617,2.3698 4.3852,2.7661 0.8237,0.396 1.6342,0.517 2.4324,0.3634 0.7965,-0.1508 1.5562,-0.7495 2.2751,-1.791 0.6565,-0.9513 0.9317,-1.7047 0.8257,-2.2606 -0.1026,-0.5539 -0.6205,-1.1996 -1.5505,-1.9355 0.989,0.4496 1.7288,0.6508 2.2133,0.597 0.483,-0.0516 0.8379,-0.1644 1.0615,-0.3339 0.2268,-0.167 0.6792,-0.7453 1.3604,-1.7326 l 2.2294,-3.2295 -4.136,-2.8491 -2.8091,4.07 c -0.4522,0.6548 -0.8034,1.0094 -1.0562,1.0672 -0.2495,0.0604 -0.6781,-0.121 -1.2884,-0.5408 l 3.8109,-5.5213 -4.4609,-3.0728 z m 5.902,0.9851 1.8785,-2.7219 c 0.4981,0.343 0.8107,0.6307 0.942,0.8655 0.1309,0.2347 0.011,0.6241 -0.3609,1.1627 l -0.4643,0.6727 c -0.2681,0.3892 -0.542,0.5771 -0.8172,0.5666 -0.2747,-0.0105 -0.6693,-0.195 -1.1781,-0.5456 z m 24.4508,4.5212 1.2319,-1.3181 -2.9704,-2.7706 c -0.7143,-0.6664 -1.2597,-1.0978 -1.6259,-1.2894 -0.3666,-0.192 -0.6764,-0.2583 -0.9241,-0.1982 -0.2481,0.0598 -0.5621,0.2934 -0.9408,0.6985 -0.9148,-0.8187 -1.84,-1.3692 -2.7842,-1.6546 -0.9428,-0.288 -1.7473,-0.2804 -2.4081,0.0159 -0.6658,0.2956 -1.453,0.932 -2.3638,1.9068 l -3.1382,3.3571 c -0.6905,0.7393 -1.1537,1.3569 -1.3935,1.857 -0.2398,0.5003 -0.3266,1.1004 -0.2639,1.7971 0.06,0.6991 0.3089,1.4151 0.7455,2.1476 0.4368,0.733 1.0222,1.4419 1.7524,2.1231 0.881,0.8218 1.7696,1.4497 2.6597,1.8771 0.8935,0.4303 1.6637,0.6392 2.3119,0.6268 0.6495,-0.0151 1.1946,-0.1491 1.6288,-0.4082 0.436,-0.2617 0.9817,-0.7424 1.6359,-1.4426 l 3.2984,-3.5288 c 0.9025,-0.9655 1.4491,-1.6852 1.6387,-2.151 0.1916,-0.468 0.1962,-0.9737 0.015,-1.5239 -0.1845,-0.5536 -0.5357,-1.1724 -1.0539,-1.8567 0.2418,-0.2199 0.4536,-0.3053 0.633,-0.2537 0.1794,0.0519 0.4958,0.2912 0.9507,0.7155 l 1.3652,1.2733 z m -11.4962,4.3679 c -0.4702,0.5035 -0.8104,0.7903 -1.0199,0.8606 -0.2075,0.0678 -0.4309,-0.0079 -0.6675,-0.229 -0.2022,-0.1882 -0.3025,-0.3886 -0.3045,-0.6049 -8e-4,-0.2106 0.2588,-0.5981 0.781,-1.1566 l 4.7375,-5.0686 c 0.5882,-0.6296 0.9867,-0.9856 1.1942,-1.0664 0.2095,-0.083 0.4417,-0.0037 0.6979,0.2353 0.2628,0.2452 0.3535,0.4884 0.269,0.7262 -0.085,0.2381 -0.4277,0.6761 -1.0247,1.3145 z m 10.1483,17.2494 7.8146,-6.1441 c 0.8864,-0.6967 1.4774,-1.2282 1.7719,-1.5879 0.2943,-0.3654 0.4771,-0.8932 0.542,-1.5855 0.068,-0.6939 -0.059,-1.4417 -0.3742,-2.2416 -0.3174,-0.8033 -0.8212,-1.6449 -1.5154,-2.526 -0.767,-0.9739 -1.5607,-1.743 -2.378,-2.3048 -0.8197,-0.5644 -1.5593,-0.8861 -2.2189,-0.9638 -0.6647,-0.0794 -1.2271,0.0119 -1.6929,0.2665 -0.4626,0.2579 -1.3566,0.9051 -2.6745,1.9409 l -6.9202,5.4411 3.3511,4.2539 8.7676,-6.8933 c 0.51,-0.4011 0.8671,-0.6205 1.0675,-0.6554 0.2021,-0.0365 0.3957,0.0624 0.5772,0.2926 0.206,0.2616 0.263,0.496 0.1672,0.6936 -0.098,0.1996 -0.4377,0.5278 -1.0188,0.9848 l -8.6176,6.7751 z m 1.4434,2.2411 5.01,7.4962 2.4707,-1.6481 -2.0007,-2.9942 2.3615,-1.5752 1.8695,2.7972 2.3459,-1.5644 -1.8694,-2.7972 2.7209,-1.8151 2.2057,3.3001 2.4712,-1.648 -5.2143,-7.8021 z m 14.4491,17.0609 -2.0982,-4.5601 -0.9998,0.4589 c -0.4672,0.2143 -0.7934,0.2917 -0.9746,0.235 -0.1811,-0.0564 -0.3316,-0.2186 -0.4561,-0.489 -0.1355,-0.2945 -0.1527,-0.5567 -0.049,-0.7874 0.1015,-0.2299 0.326,-0.4244 0.6763,-0.5854 0.4493,-0.2064 0.8289,-0.2744 1.1353,-0.2081 0.3019,0.0638 0.7903,0.3989 1.465,1.0097 1.9329,1.7493 3.3301,2.7703 4.1853,3.0623 0.8572,0.2957 1.9466,0.1378 3.2681,-0.4691 0.9626,-0.4419 1.5981,-0.9267 1.9122,-1.4517 0.311,-0.5238 0.4139,-1.3036 0.3059,-2.3482 -0.1032,-1.042 -0.4309,-2.1591 -0.9819,-3.3568 -0.6041,-1.313 -1.298,-2.349 -2.0824,-3.1167 -0.7826,-0.7636 -1.5137,-1.1605 -2.1971,-1.1987 -0.684,-0.0329 -1.533,0.1834 -2.5438,0.6474 l -0.8858,0.4068 2.0979,4.5601 1.6435,-0.7543 c 0.5068,-0.233 0.8606,-0.3181 1.0644,-0.2577 0.2038,0.0607 0.3796,0.2551 0.5295,0.5814 0.1503,0.3263 0.171,0.6109 0.058,0.8549 -0.1085,0.243 -0.3455,0.4479 -0.7044,0.6126 -0.7943,0.3648 -1.385,0.453 -1.766,0.2619 -0.3895,-0.2024 -1.1514,-0.7778 -2.2867,-1.7317 -1.1381,-0.9521 -1.9298,-1.5624 -2.3748,-1.8399 -0.4431,-0.2736 -0.9567,-0.438 -1.5373,-0.4848 -0.5802,-0.0467 -1.2302,0.0927 -1.9477,0.4221 -1.0335,0.4745 -1.707,1.0055 -2.0154,1.5951 -0.3081,0.5899 -0.4082,1.3541 -0.2999,2.302 0.1086,0.9482 0.4309,2.0004 0.9669,3.1663 0.5859,1.2733 1.2322,2.2875 1.9392,3.0523 0.7081,0.7591 1.3515,1.1824 1.9346,1.2663 0.5808,0.085 1.4086,-0.1168 2.4823,-0.6098 l 0.5358,-0.2457 z"
   style="fill:#ffffff;fill-opacity:1;fill-rule:nonzero;stroke:none"
   id="path4590"
   inkscape:connector-curvature="0" /><path
   d="m 1742.4973,126.337 c 2.2958,0 4.157,-1.8212 4.157,-4.0682 0,-2.2468 -1.8612,-4.068 -4.157,-4.068 -2.2958,0 -4.157,1.8212 -4.157,4.068 0,2.247 1.8612,4.0682 4.157,4.0682"
   style="fill:#ffffff;fill-opacity:1;fill-rule:evenodd;stroke:none"
   id="path4592"
   inkscape:connector-curvature="0" /><path
   d="m 1918.8641,158.042 h 623.622 V 62.3971 h -623.622 z"
   style="fill:#ff0000;fill-opacity:1;fill-rule:evenodd;stroke:none"
   id="path4596"
   inkscape:connector-curvature="0" /><path
   d="m 1918.8638,158.042 h 35.3764 V 62.3971 h -35.3764 z"
   style="fill:#ffffff;fill-opacity:1;fill-rule:evenodd;stroke:none"
   id="path4598"
   inkscape:connector-curvature="0" /><path
   d="m 2507.11,158.042 h 35.3761 V 62.3971 H 2507.11 Z"
   style="fill:#ffffff;fill-opacity:1;fill-rule:evenodd;stroke:none"
   id="path4600"
   inkscape:connector-curvature="0" /><path
   d="m 1918.8638,248.3121 h 13.4813 c 4.2596,0 7.4871,-0.3441 9.6828,-1.0443 2.1958,-0.6885 3.9632,-2.1001 5.3136,-4.2117 1.3504,-2.1228 2.0202,-5.5312 2.0202,-10.2367 0,-3.1788 -0.4722,-5.3938 -1.4275,-6.6447 -0.955,-1.2623 -2.8434,-2.2147 -5.6537,-2.8919 3.1397,-0.7458 5.2696,-1.9738 6.3893,-3.6839 1.12,-1.7212 1.6798,-4.3495 1.6798,-7.907 v -5.0496 c 0,-3.6837 -0.4062,-6.4035 -1.2078,-8.1822 -0.8014,-1.7674 -2.0747,-2.9841 -3.8311,-3.638 -1.7569,-0.6543 -5.3577,-0.9754 -10.8031,-0.9754 h -15.6438 z m 13.5691,-9.2953 v -12.119 c 0.5709,0.023 1.01,0.0346 1.3284,0.0346 1.2957,0 2.1296,0.3441 2.4811,1.0213 0.3623,0.6885 0.538,2.651 0.538,5.8757 0,1.7098 -0.1428,2.9035 -0.4393,3.592 -0.2962,0.6772 -0.6803,1.1132 -1.1526,1.2969 -0.472,0.172 -1.3944,0.2752 -2.7556,0.2985 z m 0,-20.5884 V 203.142 c 1.8664,0.0689 3.0629,0.3788 3.5788,0.9414 0.5162,0.5621 0.7687,1.9508 0.7687,4.1542 v 5.0956 c 0,2.3411 -0.2304,3.7525 -0.6916,4.2573 -0.4612,0.4938 -1.6798,0.7691 -3.6559,0.8379 z m 29.5441,29.8837 h 9.584 c 6.3893,0 10.7147,-0.2523 12.9761,-0.7687 2.2615,-0.5165 4.106,-1.8363 5.5333,-3.9592 1.4269,-2.1118 2.1407,-5.4972 2.1407,-10.1336 0,-4.2346 -0.5049,-7.0806 -1.5151,-8.5382 -0.999,-1.4576 -2.986,-2.3298 -5.9502,-2.6164 2.6787,-0.7001 4.4903,-1.6296 5.4124,-2.8003 0.9221,-1.1591 1.493,-2.238 1.7124,-3.2134 0.2308,-0.9754 0.3405,-3.6606 0.3405,-8.056 v -14.3796 h -12.581 v 18.1207 c 0,2.9149 -0.2197,4.7166 -0.6588,5.4168 -0.428,0.7001 -1.5698,1.0442 -3.4254,1.0442 v -24.5817 h -13.5689 z m 13.5689,-9.2953 v -12.119 c 1.5151,0 2.5691,0.218 3.1728,0.6542 0.6038,0.436 0.9114,1.8593 0.9114,4.2577 v 2.9953 c 0,1.7329 -0.2965,2.869 -0.8785,3.4081 -0.5816,0.5395 -1.6577,0.8037 -3.2057,0.8037 z m 52.0166,9.2953 7.7505,-54.4654 h -13.8436 l -0.7355,9.7775 h -4.8853 l -0.7356,-9.7775 h -14.0193 l 6.8723,54.4654 z m -7.1906,-35.0478 c -0.648,6.1741 -1.3286,13.8172 -2.0532,22.9405 -1.3393,-10.4661 -2.1846,-18.1091 -2.5469,-22.9405 z m 48.3057,35.0478 v -10.8793 l -10.0451,-32.7068 h 10.0451 v -10.8793 h -24.9647 v 7.8956 l 10.4403,35.6905 h -9.1888 v 10.8793 z m 23.8023,0 v -54.4654 h -13.5692 v 54.4654 z m 25.7232,0 V 204.726 h 8.1678 v -10.8793 h -21.7366 v 54.4654 z m 31.7949,0 v -54.4654 h -13.5695 v 54.4654 z m 35.5266,0 7.751,-54.4654 h -13.8438 l -0.7353,9.7775 h -4.8855 l -0.7356,-9.7775 h -14.0193 l 6.8726,54.4654 z m -7.1907,-35.0478 c -0.6477,6.1741 -1.3283,13.8172 -2.0528,22.9405 -1.3394,-10.4661 -2.1847,-18.1091 -2.547,-22.9405 z m 54.2452,35.0478 v -54.4654 h -11.8567 l -7.0478,24.7651 v -24.7651 h -11.3298 v 54.4654 h 11.3298 l 7.5747,-24.5242 v 24.5242 z m 40.3243,0 v -36.4022 c 0,-5.451 -0.055,-8.9513 -0.1644,-10.512 -0.11,-1.5608 -0.6038,-2.9611 -1.4712,-4.2233 -0.8785,-1.251 -2.0639,-2.1232 -3.5462,-2.6051 -1.4819,-0.4822 -3.7213,-0.7228 -6.7076,-0.7228 h -6.7515 v 9.5363 c 0.8013,-0.0686 1.383,-0.1032 1.7455,-0.1032 0.9443,0 1.7017,0.241 2.2505,0.7348 0.5487,0.4932 0.8671,1.1015 0.9442,1.8246 0.088,0.7115 0.1318,2.0999 0.1318,4.1658 v 38.3071 z m 25.5809,0 v -54.4654 h -13.5688 v 54.4654 z m 42.9154,0 v -36.4135 c 0,-4.1315 -0.1318,-7.0348 -0.384,-8.699 -0.2637,-1.6756 -1.0211,-3.397 -2.2836,-5.1528 -1.2623,-1.7671 -2.9313,-3.0986 -4.9952,-4.0051 -2.075,-0.9068 -4.512,-1.3657 -7.3225,-1.3657 -3.1068,0 -5.8516,0.5394 -8.2227,1.618 -2.3823,1.0789 -4.1607,2.4789 -5.3357,4.2004 -1.1854,1.7328 -1.8771,3.5577 -2.0968,5.4739 -0.2083,1.9168 -0.318,5.9562 -0.318,12.096 v 32.2478 h 13.5688 v -40.8549 c 0,-2.3757 0.1208,-3.9019 0.3626,-4.5561 0.2412,-0.6656 0.7353,-0.9984 1.4709,-0.9984 0.8342,0 1.3833,0.3674 1.6248,1.0902 0.2415,0.7345 0.3623,2.456 0.3623,5.1645 v 40.1547 z m 27.48,-27.4736 v -9.3646 h -16.9943 v 9.3646 z m 27.1944,27.4736 v -36.4022 c 0,-5.451 -0.055,-8.9513 -0.1644,-10.512 -0.1103,-1.5608 -0.6041,-2.9611 -1.4715,-4.2233 -0.8781,-1.251 -2.0639,-2.1232 -3.5458,-2.6051 -1.482,-0.4822 -3.7216,-0.7228 -6.7076,-0.7228 h -6.7519 v 9.5363 c 0.8014,-0.0686 1.3833,-0.1032 1.7456,-0.1032 0.9442,0 1.7016,0.241 2.2504,0.7348 0.5488,0.4932 0.8674,1.1015 0.9442,1.8246 0.088,0.7115 0.1318,2.0999 0.1318,4.1658 v 38.3071 z m 25.5807,0 v -54.4654 h -13.5692 v 54.4654 z m 39.4245,0 v -10.8793 h -7.9701 v -43.5861 h -13.5695 v 43.5861 h -8.0359 v 10.8793 z m 38.4908,-16.5254 h -12.581 v 4.028 c 0,1.8822 -0.1647,3.0873 -0.483,3.6037 -0.3186,0.5162 -0.8453,0.7688 -1.5916,0.7688 -0.8127,0 -1.4273,-0.3444 -1.8445,-1.0443 -0.4173,-0.6885 -0.6259,-1.7328 -0.6259,-3.1445 0,-1.8133 0.2418,-3.179 0.7137,-4.0972 0.4612,-0.9065 1.7345,-2.0197 3.8313,-3.3278 6.0052,-3.7528 9.7926,-6.8398 11.3517,-9.2384 1.5698,-2.3984 2.3493,-6.2657 2.3493,-11.5909 0,-3.8789 -0.4391,-6.7365 -1.3065,-8.5842 -0.8674,-1.836 -2.5359,-3.374 -5.0281,-4.6133 -2.4809,-1.251 -5.3682,-1.8706 -8.6729,-1.8706 -3.6226,0 -6.7076,0.7231 -9.2766,2.1574 -2.5577,1.4346 -4.2265,3.2593 -5.0281,5.4743 -0.7903,2.2263 -1.1855,5.3821 -1.1855,9.4561 v 3.5694 h 12.581 v -6.6221 c 0,-2.0426 0.1758,-3.3508 0.5273,-3.9361 0.3509,-0.5854 0.9768,-0.8723 1.8771,-0.8723 0.9003,0 1.5698,0.3674 2.0089,1.1132 0.4391,0.7345 0.6588,1.8363 0.6588,3.2822 0,3.2018 -0.4173,5.302 -1.2515,6.2774 -0.8671,0.987 -2.975,2.6396 -6.3343,4.9578 -3.3596,2.3295 -5.5772,4.028 -6.675,5.0839 -1.0868,1.0559 -1.9979,2.5132 -2.7117,4.3724 -0.7134,1.859 -1.0757,4.2347 -1.0757,7.1266 0,4.1658 0.5048,7.2184 1.5259,9.1466 1.021,1.9281 2.6566,3.4313 4.9294,4.5215 2.2723,1.0902 5.006,1.6297 8.2228,1.6297 3.5127,0 6.499,-0.5967 8.9801,-1.7788 2.4701,-1.1934 4.106,-2.6852 4.9071,-4.4986 0.8016,-1.802 1.2075,-4.8659 1.2075,-9.1924 z m 42.916,16.5254 v -36.4135 c 0,-4.1315 -0.1318,-7.0348 -0.3844,-8.699 -0.2636,-1.6756 -1.021,-3.397 -2.2838,-5.1528 -1.2623,-1.7671 -2.9311,-3.0986 -4.9947,-4.0051 -2.0752,-0.9068 -4.5122,-1.3657 -7.323,-1.3657 -3.1068,0 -5.8513,0.5394 -8.2225,1.618 -2.3822,1.0789 -4.1607,2.4789 -5.3353,4.2004 -1.1858,1.7328 -1.8774,3.5577 -2.0968,5.4739 -0.2089,1.9168 -0.3184,5.9562 -0.3184,12.096 v 32.2478 h 13.5689 v -40.8549 c 0,-2.3757 0.1211,-3.9019 0.3623,-4.5561 0.2415,-0.6656 0.7356,-0.9984 1.4712,-0.9984 0.8345,0 1.3833,0.3674 1.6245,1.0902 0.2418,0.7345 0.3626,2.456 0.3626,5.1645 v 40.1547 z"
   style="fill:#ffffff;fill-opacity:1;fill-rule:nonzero;stroke:none"
   id="path4606"
   inkscape:connector-curvature="0" /></g><g
     inkscape:groupmode="layer"
     id="layer1"
     inkscape:label="new"
     style="display:inline;opacity:1" /><g
     inkscape:groupmode="layer"
     id="layer3"
     inkscape:label="lago"
     style="display:inline"><g
       id="g67185"
       style="display:inline"
       transform="matrix(3.9345075,0,0,3.9345075,1747.0811,-540.39521)"><path
         style="display:inline;fill:none;fill-opacity:0.290816;stroke:none;stroke-width:0.0803092;stroke-opacity:1"
         inkscape:path-effect="#path-effect885-5"
         inkscape:original-d="m 110.03244,51.670327 -2.36204,-0.184382 -1.17119,0.02258 -1.1712,0.02259 -1.09438,0.06502 -1.09438,0.06504 -1.34508,0.163063 -1.34508,0.163073 -1.533355,0.297073 -1.533347,0.297074 -1.136292,0.305966 -1.136291,0.305953 -1.001232,0.318066 -1.001221,0.318066 -1.388397,0.544218 -1.388397,0.544219 -0.915776,0.422088 -0.91579,0.422084 -1.22786,0.65344 -1.227847,0.653444 -1.110077,0.688658 -1.110078,0.688658 -0.85967,0.594063 -0.859672,0.594041 -1.640043,1.346929 -1.640028,1.346917 -0.873397,0.848833 -0.873387,0.848831 -0.765911,0.818171 -0.765915,0.818163 -1.118122,1.391287 -1.118125,1.391278 -0.576472,0.826102 -0.576474,0.826096 -0.782896,1.269202 -0.782905,1.269208 -0.49138,0.928525 -0.491375,0.928531 -0.50353,1.06359 -0.50354,1.06359 -0.56554,1.455875 -0.565547,1.455879 -0.401676,1.294358 -0.401685,1.294358 -0.325324,1.381849 -0.325317,1.381842 -0.192127,0.99066 -0.192112,0.99065 -0.233468,2.599586 -0.233474,2.599578 0.01251,1.009039 0.01252,1.009031 0.07388,1.41771 0.0739,1.41768 0.164623,1.34522 0.164606,1.34524 0.297075,1.53334 0.297078,1.53336 0.305962,1.13627 0.305957,1.13631 0.318064,1.00121 0.318065,1.00124 0.54422,1.38838 0.544215,1.38842 0.422059,0.91579 0.422055,0.91578 0.653474,1.22786 0.653474,1.22783 0.688654,1.11008 0.688658,1.11007 0.594037,0.85969 0.594033,0.85968 1.346927,1.64005 1.346913,1.64001 0.848842,0.87339 0.848836,0.87341 0.818159,0.76592 0.818168,0.76593 1.391286,1.11812 1.391277,1.11809 0.826103,0.57648 0.826092,0.57649 1.269207,0.78289 1.269212,0.7829 0.92852,0.49137 0.928536,0.49139 1.063588,0.50353 1.063592,0.50354 1.455871,0.56553 1.455884,0.56555 1.29436,0.40169 1.294355,0.40167 1.381863,0.32534 1.381836,0.32531 0.990659,0.19211 0.990647,0.19213 2.59958,0.23348 2.59958,0.23346 1.00902,-0.0125 1.00904,-0.0125 1.41769,-0.0739 1.4177,-0.0739 1.34522,-0.16461 1.34522,-0.16462 1.53336,-0.29707 1.53334,-0.29709 1.13629,-0.30594 1.1363,-0.30597 1.00122,-0.31807 1.00123,-0.31806 1.38839,-0.54422 1.38839,-0.54421 0.9156,-0.42007 0.91558,-0.42007 1.56826,-0.8523 1.56825,-0.85231 0.94153,-0.6079 0.94156,-0.60789 0.99086,-0.70818 0.99088,-0.70816 1.61759,-1.37379 1.61761,-1.37378 0.73772,-0.74007 0.73773,-0.74006 0.87544,-0.9696 0.87543,-0.96959 0.86177,-1.09178 0.86177,-1.09178 0.57852,-0.82591 0.57852,-0.82591 0.78289,-1.26921 0.78292,-1.26919 0.49136,-0.92853 0.49139,-0.92854 0.50352,-1.06359 0.50355,-1.06358 0.56553,-1.45589 0.56555,-1.45587 0.40168,-1.29437 0.40167,-1.29435 0.32534,-1.38185 0.32531,-1.38185 0.19211,-0.99064 0.19213,-0.99066 0.23348,-2.59957 0.23347,-2.59959 -0.0125,-1.00904 -0.0125,-1.009032 -0.0739,-1.417697 -0.0739,-1.417708 -0.16461,-1.34522 -0.16462,-1.345218 -0.29707,-1.533353 -0.29708,-1.533342 -0.30596,-1.136297 -0.30596,-1.136292 -0.31805,-1.001231 -0.31807,-1.00122 -0.54422,-1.388395 -0.54423,-1.388396 -0.42208,-0.915774 -0.42209,-0.915791 -0.65344,-1.227857 -0.65345,-1.227853 -0.68865,-1.110072 -0.68867,-1.110077 -0.59404,-0.859671 -0.59405,-0.85968 -1.34693,-1.640037 -1.34691,-1.640025 -0.84884,-0.873401 -0.84883,-0.873391 -0.81817,-0.765907 -0.81816,-0.765917 -1.3913,-1.118122 -1.39127,-1.11812 -0.8261,-0.576476 -0.82609,-0.576471 -1.26921,-0.782902 -1.26921,-0.782902 -0.92852,-0.491378 -0.92854,-0.491381 -1.06359,-0.50353 -1.06358,-0.503538 -1.45589,-0.565539 -1.45586,-0.56554 -1.29436,-0.401679 -1.29436,-0.401688 -1.38182,-0.325743 -1.38179,-0.325734 -0.99223,-0.174634 -0.99222,-0.174633 -0.39725,-0.06576 -0.39725,-0.06577 z"
         d="m 110.03244,51.670327 -2.36204,-0.184382 -1.17119,0.02258 -1.1712,0.02259 -1.09438,0.06502 -1.09438,0.06504 -1.34508,0.163063 -1.34508,0.163073 -1.533355,0.297073 -1.533347,0.297074 -1.136292,0.305966 -1.136291,0.305953 -1.001232,0.318066 -1.001221,0.318066 -1.388397,0.544218 -1.388397,0.544219 -0.915776,0.422088 -0.91579,0.422084 -1.22786,0.65344 -1.227847,0.653444 -1.110077,0.688658 -1.110078,0.688658 -0.85967,0.594063 -0.859672,0.594041 -1.640043,1.346929 -1.640028,1.346917 -0.873397,0.848833 -0.873387,0.848831 -0.765911,0.818171 -0.765915,0.818163 -1.118122,1.391287 -1.118125,1.391278 -0.576472,0.826102 -0.576474,0.826096 -0.782896,1.269202 -0.782905,1.269208 -0.49138,0.928525 -0.491375,0.928531 -0.50353,1.06359 -0.50354,1.06359 -0.56554,1.455875 -0.565547,1.455879 -0.401676,1.294358 -0.401685,1.294358 -0.325324,1.381849 -0.325317,1.381842 -0.192127,0.99066 -0.192112,0.99065 -0.233468,2.599586 -0.233474,2.599578 0.01251,1.009039 0.01252,1.009031 0.07388,1.41771 0.0739,1.41768 0.164623,1.34522 0.164606,1.34524 0.297075,1.53334 0.297078,1.53336 0.305962,1.13627 0.305957,1.13631 0.318064,1.00121 0.318065,1.00124 0.54422,1.38838 0.544215,1.38842 0.422059,0.91579 0.422055,0.91578 0.653474,1.22786 0.653474,1.22783 0.688654,1.11008 0.688658,1.11007 0.594037,0.85969 0.594033,0.85968 1.346927,1.64005 1.346913,1.64001 0.848842,0.87339 0.848836,0.87341 0.818159,0.76592 0.818168,0.76593 1.391286,1.11812 1.391277,1.11809 0.826103,0.57648 0.826092,0.57649 1.269207,0.78289 1.269212,0.7829 0.92852,0.49137 0.928536,0.49139 1.063588,0.50353 1.063592,0.50354 1.455871,0.56553 1.455884,0.56555 1.29436,0.40169 1.294355,0.40167 1.381863,0.32534 1.381836,0.32531 0.990659,0.19211 0.990647,0.19213 2.59958,0.23348 2.59958,0.23346 1.00902,-0.0125 1.00904,-0.0125 1.41769,-0.0739 1.4177,-0.0739 1.34522,-0.16461 1.34522,-0.16462 1.53336,-0.29707 1.53334,-0.29709 1.13629,-0.30594 1.1363,-0.30597 1.00122,-0.31807 1.00123,-0.31806 1.38839,-0.54422 1.38839,-0.54421 0.9156,-0.42007 0.91558,-0.42007 1.56826,-0.8523 1.56825,-0.85231 0.94153,-0.6079 0.94156,-0.60789 0.99086,-0.70818 0.99088,-0.70816 1.61759,-1.37379 1.61761,-1.37378 0.73772,-0.74007 0.73773,-0.74006 0.87544,-0.9696 0.87543,-0.96959 0.86177,-1.09178 0.86177,-1.09178 0.57852,-0.82591 0.57852,-0.82591 0.78289,-1.26921 0.78292,-1.26919 0.49136,-0.92853 0.49139,-0.92854 0.50352,-1.06359 0.50355,-1.06358 0.56553,-1.45589 0.56555,-1.45587 0.40168,-1.29437 0.40167,-1.29435 0.32534,-1.38185 0.32531,-1.38185 0.19211,-0.99064 0.19213,-0.99066 0.23348,-2.59957 0.23347,-2.59959 -0.0125,-1.00904 -0.0125,-1.009032 -0.0739,-1.417697 -0.0739,-1.417708 -0.16461,-1.34522 -0.16462,-1.345218 -0.29707,-1.533353 -0.29708,-1.533342 -0.30596,-1.136297 -0.30596,-1.136292 -0.31805,-1.001231 -0.31807,-1.00122 -0.54422,-1.388395 -0.54423,-1.388396 -0.42208,-0.915774 -0.42209,-0.915791 -0.65344,-1.227857 -0.65345,-1.227853 -0.68865,-1.110072 -0.68867,-1.110077 -0.59404,-0.859671 -0.59405,-0.85968 -1.34693,-1.640037 -1.34691,-1.640025 -0.84884,-0.873401 -0.84883,-0.873391 -0.81817,-0.765907 -0.81816,-0.765917 -1.3913,-1.118122 -1.39127,-1.11812 -0.8261,-0.576476 -0.82609,-0.576471 -1.26921,-0.782902 -1.26921,-0.782902 -0.92852,-0.491378 -0.92854,-0.491381 -1.06359,-0.50353 -1.06358,-0.503538 -1.45589,-0.565539 -1.45586,-0.56554 -1.29436,-0.401679 -1.29436,-0.401688 -1.38182,-0.325743 -1.38179,-0.325734 -0.99223,-0.174634 -0.99222,-0.174633 -0.39725,-0.06576 -0.39725,-0.06577 z"
         id="path853-9-6"
         inkscape:connector-curvature="0"
         transform="translate(-9.7916665e-7,96.999995)" /><path
         style="display:inline;fill:#ffffff;fill-opacity:0.218085;stroke:none;stroke-width:0.0703124;stroke-opacity:1"
         inkscape:path-effect="#path-effect885-6"
         inkscape:original-d="m 71.786849,103.08774 -0.560189,-1.99728 -0.06564,-0.34636 -0.06564,-0.34638 -0.155443,-0.86826 -0.155444,-0.86826 -0.148638,-1.23403 -0.148627,-1.23405 -0.05984,-1.18504 -0.05984,-1.18506 0.02618,-1.367184 0.02618,-1.36719 0.09342,-1.026039 0.0934,-1.026033 0.124123,-0.911354 0.124126,-0.911346 0.261111,-1.279245 0.261095,-1.279243 0.224941,-0.852788 0.224939,-0.852796 0.499887,-1.480606 0.499877,-1.480613 0.383057,-0.903358 0.38305,-0.903355 0.462164,-0.960956 0.462171,-0.960958 0.942258,-1.60141 0.942273,-1.601421 0.527678,-0.747382 0.52766,-0.747385 0.704984,-0.900606 0.704999,-0.900611 0.812418,-0.907151 0.812426,-0.907154 0.625602,-0.622931 0.625601,-0.62293 0.977314,-0.865747 0.977307,-0.865744 0.727178,-0.563166 0.727203,-0.563173 0.841866,-0.593916 0.841865,-0.593922 1.170936,-0.706264 1.170936,-0.706261 1.056202,-0.54069 1.056203,-0.54069 1.143128,-0.487955 1.14312,-0.487953 0.825683,-0.314359 0.825675,-0.314355 2.20729,-0.591442 2.207282,-0.591439 0.872244,-0.1406 0.87223,-0.140596 1.23396,-0.148983 1.23394,-0.148981 1.18505,-0.05985 1.18504,-0.05985 1.36719,0.02617 1.3672,0.02618 1.02603,0.09342 1.02603,0.09341 0.91136,0.124123 0.91136,0.124123 1.27923,0.261106 1.27924,0.261103 0.85326,0.226671 0.85326,0.226673 1.15715,0.379405 1.15716,0.379405 1.06084,0.427456 1.06085,0.427454 0.83066,0.383423 0.83066,0.383417 1.61674,0.915735 1.61673,0.915731 0.88073,0.601127 0.88073,0.601132 0.78342,0.590798 0.78342,0.590802 1.17321,1.03231 1.17321,1.032303 0.62119,0.626074 0.62121,0.626064 0.86574,0.977309 0.86574,0.977305 0.56317,0.727185 0.56317,0.727195 0.59393,0.841865 0.59391,0.841868 0.70627,1.170934 0.70625,1.170935 0.5407,1.056201 0.54069,1.056206 0.48796,1.143127 0.48795,1.143115 0.31435,0.82568 0.31436,0.825675 0.59144,2.207282 0.59144,2.207284 0.1406,0.872234 0.14059,0.872242 0.14899,1.233946 0.14897,1.233958 0.0599,1.185042 0.0599,1.185044 -0.0262,1.367204 -0.0262,1.36719 -0.0934,1.02603 -0.0934,1.02605 -0.12412,0.91135 -0.12413,0.91134 -0.2611,1.27925 -0.2611,1.27925 -0.22494,0.85278 -0.22494,0.8528 -0.49987,1.4806 -0.49988,1.48061 -0.38306,0.90336 -0.38307,0.90336 -0.46216,0.96096 -0.46217,0.96096 -0.94227,1.60141 -0.94227,1.60142 -0.52766,0.74737 -0.52767,0.74739 -0.70499,0.90061 -0.70498,0.9006 -0.81243,0.90716 -0.81243,0.90715 -0.6256,0.62293 -0.6256,0.62294 -0.97732,0.86575 -0.97729,0.86574 -0.72719,0.56316 -0.7272,0.56317 -0.84187,0.59392 -0.84185,0.59393 -1.17095,0.70626 -1.17093,0.70627 -1.05621,0.54068 -1.0562,0.54069 -1.14312,0.48796 -1.14313,0.48795 -0.82567,0.31436 -0.82569,0.31435 -2.20728,0.59144 -2.20729,0.59144 -0.87223,0.1406 -0.87225,0.1406 -1.23394,0.14898 -1.23395,0.14899 -1.18505,0.0599 -1.18504,0.0599 -1.36719,-0.0262 -1.36719,-0.0262 -1.02604,-0.0934 -1.02604,-0.0934 -0.91136,-0.12412 -0.91134,-0.12413 -1.279241,-0.26109 -1.279253,-0.26111 -0.852787,-0.22494 -0.852788,-0.22494 -1.480604,-0.49987 -1.480614,-0.49988 -0.903365,-0.38306 -0.903347,-0.38305 -0.960963,-0.46216 -0.96095,-0.46218 -1.601412,-0.94227 -1.60143,-0.94226 -0.747372,-0.52768 -0.747386,-0.52766 -0.900607,-0.70499 -0.900609,-0.70499 -0.907152,-0.81241 -0.907153,-0.81243 -0.622933,-0.62562 -0.622939,-0.62559 -0.865736,-0.97731 -0.865752,-0.9773 -0.563169,-0.72719 -0.563171,-0.72719 -0.593907,-0.84187 -0.593922,-0.84187 -0.706264,-1.17093 -0.706267,-1.17094 -0.539387,-1.05656 -0.539363,-1.05655 -0.383238,-0.88002 -0.383231,-0.88001 -0.371485,-0.95596 -0.371506,-0.95595 z"
         d="m 71.786849,103.08774 -0.560189,-1.99728 -0.06564,-0.34636 -0.06564,-0.34638 -0.155443,-0.86826 -0.155444,-0.86826 -0.148638,-1.23403 -0.148627,-1.23405 -0.05984,-1.18504 -0.05984,-1.18506 0.02618,-1.367184 0.02618,-1.36719 0.09342,-1.026039 0.0934,-1.026033 0.124123,-0.911354 0.124126,-0.911346 0.261111,-1.279245 0.261095,-1.279243 0.224941,-0.852788 0.224939,-0.852796 0.499887,-1.480606 0.499877,-1.480613 0.383057,-0.903358 0.38305,-0.903355 0.462164,-0.960956 0.462171,-0.960958 0.942258,-1.60141 0.942273,-1.601421 0.527678,-0.747382 0.52766,-0.747385 0.704984,-0.900606 0.704999,-0.900611 0.812418,-0.907151 0.812426,-0.907154 0.625602,-0.622931 0.625601,-0.62293 0.977314,-0.865747 0.977307,-0.865744 0.727178,-0.563166 0.727203,-0.563173 0.841866,-0.593916 0.841865,-0.593922 1.170936,-0.706264 1.170936,-0.706261 1.056202,-0.54069 1.056203,-0.54069 1.143128,-0.487955 1.14312,-0.487953 0.825683,-0.314359 0.825675,-0.314355 2.20729,-0.591442 2.207282,-0.591439 0.872244,-0.1406 0.87223,-0.140596 1.23396,-0.148983 1.23394,-0.148981 1.18505,-0.05985 1.18504,-0.05985 1.36719,0.02617 1.3672,0.02618 1.02603,0.09342 1.02603,0.09341 0.91136,0.124123 0.91136,0.124123 1.27923,0.261106 1.27924,0.261103 0.85326,0.226671 0.85326,0.226673 1.15715,0.379405 1.15716,0.379405 1.06084,0.427456 1.06085,0.427454 0.83066,0.383423 0.83066,0.383417 1.61674,0.915735 1.61673,0.915731 0.88073,0.601127 0.88073,0.601132 0.78342,0.590798 0.78342,0.590802 1.17321,1.03231 1.17321,1.032303 0.62119,0.626074 0.62121,0.626064 0.86574,0.977309 0.86574,0.977305 0.56317,0.727185 0.56317,0.727195 0.59393,0.841865 0.59391,0.841868 0.70627,1.170934 0.70625,1.170935 0.5407,1.056201 0.54069,1.056206 0.48796,1.143127 0.48795,1.143115 0.31435,0.82568 0.31436,0.825675 0.59144,2.207282 0.59144,2.207284 0.1406,0.872234 0.14059,0.872242 0.14899,1.233946 0.14897,1.233958 0.0599,1.185042 0.0599,1.185044 -0.0262,1.367204 -0.0262,1.36719 -0.0934,1.02603 -0.0934,1.02605 -0.12412,0.91135 -0.12413,0.91134 -0.2611,1.27925 -0.2611,1.27925 -0.22494,0.85278 -0.22494,0.8528 -0.49987,1.4806 -0.49988,1.48061 -0.38306,0.90336 -0.38307,0.90336 -0.46216,0.96096 -0.46217,0.96096 -0.94227,1.60141 -0.94227,1.60142 -0.52766,0.74737 -0.52767,0.74739 -0.70499,0.90061 -0.70498,0.9006 -0.81243,0.90716 -0.81243,0.90715 -0.6256,0.62293 -0.6256,0.62294 -0.97732,0.86575 -0.97729,0.86574 -0.72719,0.56316 -0.7272,0.56317 -0.84187,0.59392 -0.84185,0.59393 -1.17095,0.70626 -1.17093,0.70627 -1.05621,0.54068 -1.0562,0.54069 -1.14312,0.48796 -1.14313,0.48795 -0.82567,0.31436 -0.82569,0.31435 -2.20728,0.59144 -2.20729,0.59144 -0.87223,0.1406 -0.87225,0.1406 -1.23394,0.14898 -1.23395,0.14899 -1.18505,0.0599 -1.18504,0.0599 -1.36719,-0.0262 -1.36719,-0.0262 -1.02604,-0.0934 -1.02604,-0.0934 -0.91136,-0.12412 -0.91134,-0.12413 -1.279241,-0.26109 -1.279253,-0.26111 -0.852787,-0.22494 -0.852788,-0.22494 -1.480604,-0.49987 -1.480614,-0.49988 -0.903365,-0.38306 -0.903347,-0.38305 -0.960963,-0.46216 -0.96095,-0.46218 -1.601412,-0.94227 -1.60143,-0.94226 -0.747372,-0.52768 -0.747386,-0.52766 -0.900607,-0.70499 -0.900609,-0.70499 -0.907152,-0.81241 -0.907153,-0.81243 -0.622933,-0.62562 -0.622939,-0.62559 -0.865736,-0.97731 -0.865752,-0.9773 -0.563169,-0.72719 -0.563171,-0.72719 -0.593907,-0.84187 -0.593922,-0.84187 -0.706264,-1.17093 -0.706267,-1.17094 -0.539387,-1.05656 -0.539363,-1.05655 -0.383238,-0.88002 -0.383231,-0.88001 -0.371485,-0.95596 -0.371506,-0.95595 z"
         id="path853-2-9"
         inkscape:connector-curvature="0"
         transform="translate(-9.7916665e-7,96.999995)" /><path
         id="path1042-6"
         style="display:inline;opacity:1;fill:#010101;fill-opacity:1;fill-rule:nonzero;stroke:#000000;stroke-width:0.0882929;stroke-opacity:1"
         d="m 115.2442,223.80659 1.24846,-0.36027 1.24845,-0.36027 0.91878,-0.3381 0.91879,-0.33807 0.80596,-0.33806 0.80596,-0.33807 1.10994,-0.55428 1.10995,-0.55426 0.72742,-0.41791 0.72743,-0.4179 0.96879,-0.63283 0.96879,-0.63283 0.86857,-0.65325 0.86858,-0.65324 0.66813,-0.55622 0.66813,-0.55621 1.25873,-1.23814 1.25871,-1.23812 0.66055,-0.76835 0.66053,-0.76837 0.57376,-0.73494 0.57376,-0.73495 0.82296,-1.23605 0.82296,-1.23604 0.41619,-0.72742 0.4162,-0.72742 0.55427,-1.10995 0.55427,-1.10995 0.33807,-0.80595 0.33806,-0.80597 0.33808,-0.91878 0.33809,-0.91879 0.36027,-1.24845 0.36027,-1.24844 0.23651,-1.10242 0.23652,-1.10242 0.16674,-1.16924 0.16673,-1.16922 0.0855,-0.83518 0.0855,-0.83516 v -2.17144 -2.17143 l -0.0855,-0.83516 -0.0855,-0.83517 -0.16673,-1.16923 -0.16674,-1.16923 -0.23652,-1.10242 -0.23651,-1.10242 -0.36027,-1.24845 -0.36027,-1.24845 -0.33809,-0.91878 -0.33808,-0.91878 -0.33806,-0.80597 -0.33807,-0.80596 -0.55427,-1.10994 -0.55427,-1.10995 -0.41791,-0.72742 -0.4179,-0.72742 -0.63282,-0.9688 -0.63284,-0.96879 -0.65324,-0.86857 -0.65325,-0.86858 -0.55622,-0.66813 -0.55621,-0.66813 -1.23813,-1.25872 -1.23813,-1.25871 -0.76835,-0.66055 -0.76836,-0.66053 -0.73495,-0.57377 -0.73494,-0.57378 -1.23606,-0.82295 -1.23603,-0.82295 -0.72743,-0.4162 -0.72742,-0.4162 -1.10995,-0.55426 -1.10994,-0.55427 -0.80596,-0.33807 -0.80596,-0.33806 -0.91879,-0.33809 -0.91878,-0.33809 -1.24845,-0.36027 -1.24846,-0.36027 -1.10241,-0.23651 -1.10243,-0.23651 -1.16923,-0.16674 -1.16923,-0.16673 -0.83517,-0.0855 -0.83516,-0.0855 h -2.17143 -2.17143 l -0.83516,0.0855 -0.83517,0.0855 -1.16922,0.16673 -1.16924,0.16674 -1.102421,0.23651 -1.10242,0.23651 -1.248449,0.36027 -1.248448,0.36027 -0.918781,0.33809 -0.91878,0.33809 -0.805967,0.33806 -0.805957,0.33807 -1.109947,0.55427 -1.109948,0.55426 -0.727416,0.4162 -0.727424,0.4162 -1.236043,0.82295 -1.236052,0.82295 -0.734945,0.57378 -0.734942,0.57377 -0.768357,0.66053 -0.768356,0.66055 -1.238127,1.25871 -1.238134,1.25872 -0.556213,0.66813 -0.556222,0.66813 -0.653245,0.86858 -0.653245,0.86857 -0.63283,0.96879 -0.632829,0.9688 -0.417902,0.72742 -0.417902,0.72742 -0.554271,1.10995 -0.554272,1.10994 -0.338065,0.80596 -0.338064,0.80597 -0.338081,0.91878 -0.338089,0.91878 -0.360271,1.24845 -0.360267,1.24845 -0.236515,1.10242 -0.236515,1.10242 -0.166732,1.16923 -0.166733,1.16923 -0.08547,0.83517 -0.08547,0.83516 v 2.17143 2.17144 l 0.08547,0.83516 0.08547,0.83518 0.166733,1.16922 0.166732,1.16924 0.236515,1.10242 0.236515,1.10242 0.360267,1.24844 0.360271,1.24845 0.338089,0.91879 0.338081,0.91878 0.338064,0.80597 0.338065,0.80595 0.554272,1.10995 0.554271,1.10995 0.417902,0.72742 0.417902,0.72742 0.632829,0.9688 0.63283,0.96878 0.653245,0.86859 0.653245,0.86856 0.556222,0.66813 0.556213,0.66815 1.238134,1.25872 1.238127,1.2587 0.768356,0.66055 0.768357,0.66053 0.734942,0.57376 0.734945,0.57377 1.236052,0.82295 1.236043,0.82297 0.727424,0.41619 0.727416,0.4162 1.109948,0.55426 1.109947,0.55428 0.805957,0.33807 0.805967,0.33806 0.91878,0.33807 0.918781,0.3381 1.248448,0.36027 c 0.0252,-0.0252 0.07572,-0.5248 0.152972,-1.03056 0.10936,-0.71594 0.13027,-1.33995 0.0944,-2.81787 -0.0661,-2.72541 -0.27179,-3.66226 -1.82201,-8.29953 -1.31347,-3.9291 -1.72968,-5.822 -1.78147,-8.10213 l -0.0186,-0.81796 -0.65568,-0.49351 c -1.96,-1.47522 -3.77323,-3.74177 -5.01391,-6.26744 -0.65358,-1.33051 -0.91029,-1.69825 -2.0776,-2.97625 -1.01705,-1.11349 -1.22438,-1.45115 -1.62,-2.6383 -0.87158,-2.61546 -1.12267,-5.70303 -0.74648,-9.17922 0.13469,-1.24452 0.1734,-2.04333 0.14268,-2.94404 -0.0388,-1.13885 -0.0741,-1.34723 -0.4483,-2.64878 -0.48596,-1.69029 -0.62272,-2.56632 -0.51225,-3.28125 0.0438,-0.28344 0.0614,-0.65909 0.039,-0.83478 -0.084,-0.66085 0.41813,-1.19756 1.02461,-1.09509 0.30457,0.0515 0.35555,0.0353 0.40776,-0.12922 0.0933,-0.29409 0.59333,-0.49374 0.95699,-0.38213 0.25532,0.0784 0.34779,0.0616 0.64209,-0.11657 0.18909,-0.11447 0.45687,-0.20832 0.59506,-0.20857 0.26348,-4.4e-4 0.76412,0.24781 0.76412,0.37896 0,0.042 0.13381,-0.006 0.29737,-0.10733 0.36287,-0.22427 0.85376,-0.23724 1.10822,-0.0293 0.11288,0.0923 0.20806,0.29679 0.23623,0.50768 0.0895,0.67019 0.288142,1.09498 0.612492,1.21227 0.38265,0.13836 0.634888,0.31204 0.705528,0.76267 0.0276,0.17637 0.01435,0.61431 0.115185,0.97319 0.370654,1.29856 0.0337,2.36345 -0.74394,3.29669 -0.89787,1.07223 -0.9296,1.21077 -0.57917,2.52874 0.24446,0.9194 0.27877,1.1891 0.27877,2.19096 0,1.35311 0.10905,1.83867 0.87385,3.89103 0.63715,1.7098 0.88658,2.68664 0.92903,3.63838 l 0.0326,0.73091 0.83009,0.64006 c 0.98539,0.7598 1.94226,1.77203 2.38899,2.52718 0.26165,0.44229 0.63795,1.35547 0.82366,1.99882 0.0175,0.0607 0.16224,0.11114 0.32159,0.11209 0.15934,9.5e-4 0.71972,0.059 1.24529,0.12891 1.29994,0.17301 1.75038,0.39349 2.6985,1.32082 0.41832,0.40915 0.876663,0.80403 1.018563,0.87752 0.23722,0.12286 0.2773,0.11988 0.49754,-0.037 0.13175,-0.0938 0.43204,-0.25308 0.66731,-0.35393 0.23527,-0.10085 0.45775,-0.23052 0.4944,-0.28816 0.1,-0.1572 0.0828,-1.66697 -0.0247,-2.168 -0.0517,-0.24115 -0.23779,-0.67023 -0.41351,-0.95349 -0.9081,-1.46398 -0.97176,-1.7768 -0.54499,-2.67821 0.29307,-0.61901 0.29235,-0.57728 0.0326,-1.88931 -0.13249,-0.66934 -0.14038,-0.88501 -0.0533,-1.45683 0.386,-2.53529 2.89525,-4.29859 5.88156,-4.13309 1.48421,0.0823 2.41315,0.47635 3.24777,1.37783 1.06774,1.15329 1.32983,1.92508 1.28801,3.79283 -0.0289,1.28972 -0.0265,1.30892 0.20018,1.60828 0.12618,0.16664 0.2796,0.45605 0.34094,0.64313 0.20409,0.62252 0.12941,0.82731 -1.35713,3.72132 -0.33577,0.65367 -0.49347,1.29202 -0.49347,1.99753 0,0.40823 0.0176,0.4393 0.37525,0.66291 0.20638,0.12903 0.51813,0.38778 0.69278,0.57501 0.17464,0.18722 0.36682,0.34041 0.42706,0.34041 0.0602,0 0.32638,-0.2186 0.59143,-0.48578 1.02578,-1.034 2.57955,-1.70164 4.1575,-1.78643 l 0.90229,-0.0485 0.10306,-0.31856 c 0.29046,-0.89786 1.05345,-2.03558 1.90554,-2.8414 0.28224,-0.26691 1.09614,-0.97397 1.80868,-1.57124 1.45922,-1.22318 1.49117,-1.26992 2.04651,-2.99458 0.40384,-1.25412 0.46098,-1.36418 1.29335,-2.49111 0.37662,-0.50989 0.74832,-1.0525 0.826,-1.2058 0.22205,-0.43816 0.47929,-1.49841 0.58576,-2.4142 0.1353,-1.16384 0.32937,-2.05542 0.5881,-2.70169 0.2067,-0.51633 0.21169,-0.56575 0.0824,-0.81579 -0.0757,-0.14639 -0.36222,-0.4578 -0.6367,-0.69203 -1.05358,-0.89907 -1.34653,-1.19671 -1.48845,-1.51226 -0.0807,-0.17946 -0.24314,-0.51046 -0.36095,-0.73556 -0.25652,-0.49012 -0.27257,-0.93841 -0.0496,-1.38218 0.0905,-0.18016 0.43714,-0.40288 0.49763,-0.59712 0.0605,-0.19425 0.0281,-0.63963 0.0885,-0.92241 0.0691,-0.32285 0.26725,-0.67051 0.34749,-0.89648 0.17622,-0.49627 0.26927,-0.64977 0.56531,-0.75788 0.26094,-0.0953 0.65521,0.0205 0.81149,0.18974 0.28189,0.2819 0.41854,0.20683 0.50262,0.0497 0.21201,-0.39614 0.62362,-0.5079 1.10356,-0.25972 0.23664,0.12237 0.40611,0.314 0.67291,0.15135 0.15956,-0.0973 0.28492,-0.25778 0.60609,-0.24657 0.27994,0.01 0.65491,0.21088 0.72026,0.41676 0.049,0.15481 0.31034,-0.26533 0.73197,-0.0687 0.2172,0.1013 0.25511,0.17214 0.5482,0.46521 0.33383,0.33383 0.58425,1.02086 0.58781,1.61263 0.001,0.19757 0.0447,0.53801 0.0968,0.75654 0.16004,0.67223 0.10468,2.23418 -0.133,3.75244 -0.12163,0.77698 -0.36386,2.50531 -0.53828,3.84074 -0.7817,5.98482 -1.28095,8.2825 -2.25418,10.3744 -0.47217,1.01492 -0.73436,1.32572 -1.91737,2.27288 -1.34985,1.08073 -1.49123,1.26271 -2.71466,3.4942 -1.13797,2.07562 -1.6954,2.67195 -4.06364,4.34717 -2.38625,1.68796 -2.56168,1.99317 -3.34671,5.82262 -0.27637,1.34814 -0.59537,2.53801 -1.10071,4.10562 -0.90343,2.8025 -1.27372,4.15885 -1.50958,5.52964 -0.23725,1.37884 -0.3204,3.30311 -0.19026,4.40331 0.14095,1.19158 0.45676,2.56049 0.59071,2.56049 z m -7.79447,10.25568 -2.49766,0.0291 -0.42333,-0.0316 -0.42333,-0.0316 -1.05833,-0.0898 -1.05834,-0.0898 -1.48165,-0.21172 -1.48167,-0.21173 -1.397001,-0.29972 -1.397,-0.29971 -1.58205,-0.45654 -1.58205,-0.45654 -1.16429,-0.42843 -1.16429,-0.42842 -1.02133,-0.4284 -1.02132,-0.4284 -1.406539,-0.70238 -1.40654,-0.70238 -0.92179,-0.52741 -0.9218,-0.52741 -1.56633,-1.04286 -1.56634,-1.04286 -0.93133,-0.72708 -0.93133,-0.72707 -0.97367,-0.83704 -0.97367,-0.83705 -1.56897,-1.59506 -1.56898,-1.59507 -0.70484,-0.84667 -0.70485,-0.84666 -0.8278,-1.10067 -0.8278,-1.10067 -0.80193,-1.22766 -0.80193,-1.22767 -0.52957,-0.9218 -0.52957,-0.92179 -0.70238,-1.40654 -0.70238,-1.40654 -0.4284,-1.02132 -0.4284,-1.02133 -0.42842,-1.16429 -0.42843,-1.16429 -0.45654,-1.58205 -0.456535,-1.58205 -0.299715,-1.397 -0.299714,-1.397 -0.211286,-1.48167 -0.211286,-1.48166 -0.108307,-1.05834 -0.108306,-1.05833 v -2.75167 -2.75166 l 0.108306,-1.05834 0.108307,-1.05833 0.211286,-1.48167 0.211286,-1.48166 0.299714,-1.397 0.299715,-1.397 0.456535,-1.58205 0.45654,-1.58206 0.42843,-1.16428 0.42842,-1.16429 0.4284,-1.02133 0.4284,-1.02133 0.70238,-1.40653 0.70238,-1.40654 0.52957,-0.9218 0.52957,-0.92179 0.80193,-1.22767 0.80193,-1.22767 0.8278,-1.10066 0.8278,-1.10067 0.70485,-0.84667 0.70484,-0.84666 1.56898,-1.59507 1.56897,-1.59506 0.97367,-0.83705 0.97367,-0.83704 0.93133,-0.72709 0.93133,-0.72708 1.56634,-1.04286 1.56633,-1.04285 0.9218,-0.52741 0.92179,-0.52742 1.40654,-0.70237 1.406539,-0.70238 1.02132,-0.4284 1.02133,-0.4284 1.16429,-0.42843 1.16429,-0.42842 1.58205,-0.45654 1.58205,-0.45654 1.397,-0.29972 1.397001,-0.29971 1.48167,-0.21129 1.48165,-0.21128 1.05834,-0.10831 1.05833,-0.10831 h 2.75166 2.75166 l 1.05833,0.10831 1.05834,0.10831 1.48166,0.21128 1.48167,0.21129 1.397,0.29971 1.397,0.29972 1.58206,0.45654 1.58205,0.45654 1.16429,0.42842 1.16429,0.42843 1.02133,0.4284 1.02132,0.4284 1.40654,0.70238 1.40654,0.70237 0.92179,0.52742 0.9218,0.52741 1.56633,1.04285 1.56634,1.04286 0.93133,0.72708 0.93133,0.72709 0.97367,0.83704 0.97367,0.83705 1.56897,1.59506 1.56898,1.59507 0.70484,0.84666 0.70485,0.84667 0.8278,1.10067 0.8278,1.10066 0.80193,1.22767 0.80193,1.22767 0.52957,0.92179 0.52957,0.9218 0.70238,1.40654 0.70238,1.40653 0.4284,1.02133 0.4284,1.02133 0.42842,1.16429 0.42843,1.16428 0.45654,1.58206 0.45654,1.58205 0.29971,1.397 0.29972,1.397 0.21129,1.48166 0.21128,1.48167 0.10831,1.05833 0.1083,1.05834 v 2.75166 2.75167 l -0.1083,1.05833 -0.10831,1.05834 -0.21128,1.48166 -0.21129,1.48167 -0.29972,1.397 -0.29971,1.397 -0.45654,1.58205 -0.45654,1.58205 -0.42843,1.16429 -0.42842,1.16429 -0.4284,1.02133 -0.4284,1.02132 -0.70238,1.40654 -0.70238,1.40654 -0.52741,0.92179 -0.52741,0.9218 -1.04286,1.56633 -1.04286,1.56634 -0.72708,0.93133 -0.72707,0.93133 -0.83704,0.97367 -0.83705,0.97367 -1.59506,1.56897 -1.59507,1.56898 -0.84667,0.70484 -0.84666,0.70485 -1.10067,0.8278 -1.10067,0.8278 -1.22766,0.80193 -1.22767,0.80193 -0.9218,0.52957 -0.92179,0.52957 -1.40654,0.70238 -1.40654,0.70238 -1.02132,0.4284 -1.02133,0.4284 -1.16429,0.42842 -1.16429,0.42843 -1.58205,0.45654 -1.58206,0.45654 -1.397,0.29808 -1.397,0.29807 -1.143,0.17149 -1.143,0.17147 -1.22767,0.13416 -1.22766,0.13417 z"
         inkscape:connector-curvature="0"
         sodipodi:nodetypes="cccccccccccccccccccccccccccccccccccccccccccccccccccccccccccccccccccccccccccccccccccccccccccccccccccccccccccccccccccccccccccccccccccccccccccccccccccccccccccccccccccccccccccccccccccccccccscccccccccccsccccccccscsccccsccccsccccccccccccsccscccccccccccccccssssaccccscsccccccccscccsccccccccccccccccccccccccccccccccccccccccccccccccccccccccccccccccccccccccccccccccccccccccccccccccccccccccccccccccccccccccccccccccccccccccccccccccccccccccccccccccccccccccccccccccccccccccccccccccccccc" /><circle
         style="display:inline;opacity:0.94;fill:#ffffff;fill-opacity:1;stroke:#000000;stroke-width:0.202523;stroke-opacity:1"
         id="path1129-6"
         cx="67.139931"
         cy="190.15437"
         r="1.0104831" /><path
         style="display:inline;opacity:0.94;fill:#ffffff;fill-opacity:1;stroke:#000000;stroke-width:0.202523;stroke-opacity:1"
         d="m 145.64694,190.15437 a 1.0104831,1.0104831 0 0 0 1.01048,1.01049 1.0104831,1.0104831 0 0 0 1.01049,-1.01049 1.0104831,1.0104831 0 0 0 -1.01049,-1.01049 1.0104831,1.0104831 0 0 0 -1.01048,1.01049 z"
         id="path1129-4-7"
         inkscape:connector-curvature="0" /><path
         style="display:inline;opacity:1;fill:#fcfcfc;fill-opacity:1;fill-rule:nonzero;stroke:none;stroke-width:0.353553;stroke-opacity:1"
         d="m 221.90192,317.83205 c -0.21142,-0.73859 -0.718,-3.25207 -1.12573,-5.58553 -0.62486,-3.5761 -0.70918,-5.10358 -0.53671,-9.72271 0.31822,-8.52273 1.34738,-13.32932 6.24531,-29.16816 1.56344,-5.05581 3.41089,-11.81752 4.10545,-15.02602 2.51626,-11.62378 3.42874,-14.33575 5.85358,-17.39737 0.6025,-0.76071 3.81902,-3.41543 7.14784,-5.89938 9.79785,-7.3111 10.70988,-8.33129 16.46946,-18.42255 3.70875,-6.49802 4.21637,-7.12337 9.04659,-11.14456 4.50443,-3.74996 5.26545,-4.63563 7.00124,-8.14785 3.82225,-7.73402 5.54998,-15.61874 9.05898,-41.342 0.98146,-7.19481 1.86492,-13.47922 1.96323,-13.96536 0.0983,-0.48613 0.32279,-2.79307 0.49883,-5.12652 0.32386,-4.2926 -0.23435,-11.92889 -1.06177,-14.52536 -0.91281,-2.86438 -3.95255,-5.43475 -5.67405,-4.79793 -0.59794,0.2212 -0.99307,0.13264 -1.49512,-0.33509 -1.08166,-1.00772 -2.60266,-1.17946 -4.17326,-0.47122 -1.30484,0.5884 -1.46344,0.59061 -2.62546,0.0365 -1.74673,-0.83296 -3.10379,-0.73786 -4.34233,0.3043 l -1.06252,0.89405 -1.17431,-0.71595 c -1.53277,-0.9345 -2.86859,-0.90857 -3.96232,0.0769 -1.17534,1.05898 -2.7111,4.87188 -2.946,7.31413 -0.12989,1.35049 -0.43852,2.24356 -0.98507,2.85053 -2.10771,2.34064 -2.15162,4.45175 -0.17475,8.40142 1.16661,2.3308 1.89511,3.24747 4.15426,5.22727 4.86296,4.26163 5.19738,4.8555 4.14826,7.3664 -0.74029,1.77177 -1.45156,4.99575 -2.11514,9.58727 -0.91906,6.35932 -1.7081,8.74318 -3.96724,11.98587 -4.26797,6.12608 -4.6458,6.8236 -6.39326,11.80279 -0.97483,2.77768 -2.18958,5.59724 -2.69942,6.26568 -0.50985,0.66845 -3.18946,3.16608 -5.95468,5.55029 -2.76523,2.38422 -5.81227,5.13313 -6.77119,6.10869 -2.09348,2.1298 -4.76796,6.13972 -5.87269,8.80508 l -0.80407,1.93997 -2.33061,0.20357 c -6.77395,0.59168 -12.18619,2.74675 -16.2906,6.48666 l -2.29273,2.08912 -1.7321,-1.4507 c -0.95265,-0.79789 -2.21977,-1.86794 -2.8158,-2.3779 l -1.0837,-0.92719 0.42586,-2.78512 c 0.35113,-2.29639 0.92785,-3.8025 3.28659,-8.58288 4.43459,-8.98747 4.50907,-9.34699 2.65888,-12.83455 -1.19269,-2.24819 -1.19424,-2.25755 -1.33683,-8.0727 -0.13802,-5.62899 -0.17904,-5.89925 -1.23778,-8.15616 -0.68186,-1.4535 -1.97048,-3.26229 -3.41522,-4.79378 -3.92564,-4.16139 -7.18801,-5.4231 -14.02229,-5.4231 -7.0282,0 -11.82153,1.82804 -16.12077,6.14802 -2.88152,2.89542 -4.16892,5.2608 -4.95126,9.09714 -0.50297,2.4664 -0.49266,2.92622 0.1501,6.69465 l 0.69017,4.04636 -0.86878,2.12132 c -1.50552,3.67607 -1.23159,4.98465 2.43724,11.64273 1.08958,1.97734 1.16207,2.33229 1.27238,6.23079 l 0.11697,4.13401 -2.59184,1.40913 c -1.99139,1.08267 -2.74446,1.33093 -3.25057,1.07159 -0.36229,-0.18564 -1.87374,-1.46446 -3.35876,-2.84182 -4.65508,-4.31758 -5.86971,-4.85903 -12.70275,-5.66252 l -3.63608,-0.42756 -1.37106,-3.40719 c -0.75408,-1.87395 -1.79486,-4.07853 -2.31284,-4.89907 -1.35799,-2.15119 -6.21387,-7.10052 -9.24208,-9.41994 -2.56931,-1.96793 -2.60342,-2.01537 -2.60605,-3.6244 -0.006,-3.76427 -0.92291,-7.36341 -4.41523,-17.33444 -2.02552,-5.7831 -2.0342,-5.82544 -2.3484,-11.4523 -0.201,-3.59983 -0.58135,-6.68719 -1.04891,-8.51435 -1.06689,-4.16924 -1.00758,-5.44498 0.34028,-7.31892 0.61637,-0.85695 1.74532,-2.43313 2.50878,-3.50263 2.56705,-3.5961 2.92137,-6.27327 1.82086,-13.75806 -0.40809,-2.77548 -0.90881,-3.62143 -2.68751,-4.54047 -1.47761,-0.76347 -1.8605,-1.37373 -2.33564,-3.72262 -0.6404,-3.1659 -2.48737,-4.16225 -5.4337,-2.93119 -1.03138,0.43093 -1.26416,0.43228 -1.61516,0.009 -0.72395,-0.8723 -2.7032,-1.00573 -4.50856,-0.30393 -0.91527,0.3558 -2.51446,0.65321 -3.55377,0.66093 -1.6291,0.0121 -1.99653,0.14808 -2.66493,0.9863 -0.59988,0.7523 -1.07751,0.97227 -2.11108,0.97227 -3.16106,0 -3.76009,1.22417 -3.84902,7.86581 -0.0669,4.99671 -0.0533,5.09216 1.63164,11.40285 2.093,7.8393 2.35259,11.42916 1.5,20.74407 -1.36816,14.94764 -0.42882,26.63503 2.93419,36.50782 1.27319,3.73772 2.44062,5.5652 6.51208,10.194 3.82073,4.34374 4.51976,5.36787 7.60483,11.14166 3.08958,5.78221 5.0948,8.91457 8.19792,12.806 2.74789,3.44596 7.35825,8.01106 10.34717,10.24557 1.12762,0.84301 2.20153,1.81549 2.38649,2.16108 0.18495,0.34559 0.33721,2.03092 0.33836,3.74518 0.005,7.3473 1.59569,14.26465 7.30258,31.75466 3.66328,11.22693 5.23253,17.24529 5.74223,22.02256 0.50392,4.72303 0.46035,15.45273 -0.076,18.71198 l -0.41976,2.55076 -5.48008,-1.88674 c -11.63478,-4.00575 -19.83729,-8.05175 -30.05203,-14.82357 -7.48044,-4.95912 -12.68916,-9.30854 -20.34639,-16.98977 -10.72966,-10.7633 -17.457923,-20.08315 -24.148575,-33.45009 -6.75839,-13.50228 -10.512106,-25.65211 -12.834642,-41.54252 -0.729483,-4.991 -0.826804,-6.96776 -0.826804,-16.79379 0,-12.18207 0.449052,-16.7685 2.665429,-27.22361 3.96233,-18.69112 12.419664,-36.94043 24.411418,-52.67517 4.323389,-5.67285 16.230214,-17.78419 21.887174,-22.263119 4.1233,-3.264646 12.44602,-8.910638 16.79378,-11.39261 12.60193,-7.193967 28.01358,-12.749876 41.89608,-15.103558 9.88191,-1.67541 12.82637,-1.877778 24.83006,-1.706532 12.00471,0.171261 16.81068,0.672324 26.08163,2.719234 19.2499,4.250136 37.63702,13.02911 53.20979,25.405141 4.77411,3.794096 14.59923,13.283924 18.18477,17.564194 14.31999,17.09462 24.1143,37.11824 28.448,58.15953 2.106,10.22514 2.50997,14.49297 2.50997,26.5165 0,9.71691 -0.10198,11.83568 -0.79986,16.61701 -2.31753,15.87789 -5.89757,27.5619 -12.62049,41.18897 -3.98426,8.07593 -9.74527,17.20383 -15.06214,23.86486 -3.51611,4.40502 -13.06744,14.24737 -17.3015,17.82867 -14.0691,11.90008 -30.1891,20.61831 -47.72971,25.81382 -3.01404,0.89275 -5.7489,1.70797 -6.07746,1.8116 -0.45262,0.14274 -0.69055,-0.13704 -0.9818,-1.15447 z"
         id="path852-8"
         inkscape:connector-curvature="0"
         transform="matrix(0.26458333,0,0,0.26458333,56.057082,139.38116)" /><g
         id="g66645"
         style="display:inline"
         transform="translate(56.057082,139.38116)"><text
           xml:space="preserve"
           style="font-style:normal;font-variant:normal;font-weight:normal;font-stretch:normal;font-size:10.5833px;line-height:125%;font-family:sans-serif;-inkscape-font-specification:'sans-serif, Normal';font-variant-ligatures:normal;font-variant-caps:normal;font-variant-numeric:normal;font-feature-settings:normal;text-align:center;letter-spacing:0px;word-spacing:0.621771px;writing-mode:lr-tb;text-anchor:middle;display:inline;fill:#ffffff;fill-opacity:1;stroke:#000000;stroke-width:0.264583px;stroke-linecap:butt;stroke-linejoin:miter;stroke-opacity:1"
           id="text4543-5"
           transform="translate(-56.057083,-139.38115)"><textPath
             xlink:href="#path853-9-6"
             startOffset="50%"
             id="textPath1122-6"
             style="font-size:6.70278px;line-height:0px;letter-spacing:0.291042px;fill:#ffffff;fill-opacity:1;stroke:#000000;stroke-opacity:1"><tspan
               style="font-style:normal;font-variant:normal;font-weight:normal;font-stretch:condensed;font-size:6.70278px;line-height:0px;font-family:Impact;-inkscape-font-specification:'Impact, Condensed';font-variant-ligatures:normal;font-variant-caps:normal;font-variant-numeric:normal;font-feature-settings:normal;text-align:center;letter-spacing:0.291042px;writing-mode:lr-tb;text-anchor:middle;fill:#ffffff;fill-opacity:1;stroke:#000000;stroke-width:0.264583px;stroke-opacity:1"
               id="tspan4541-3"
               rotate="0 0 0 0 0 0 0 0 0 0 0 0 0 0 0 0 0 0 0 0"
               dx="7.2199998">PROF. ISRAEL DAVILA</tspan></textPath></text><text
           xml:space="preserve"
           style="font-style:normal;font-weight:normal;font-size:10.5833px;line-height:0%;font-family:sans-serif;letter-spacing:0px;word-spacing:0px;display:inline;fill:#ffffff;fill-opacity:1;stroke:#000000;stroke-width:0.264583px;stroke-linecap:butt;stroke-linejoin:miter;stroke-opacity:1"
           id="text4649-4"
           transform="translate(-56.057083,-139.38115)"><textPath
             xlink:href="#path853-2-9"
             id="textPath1109-8"
             style="font-style:normal;font-variant:normal;font-weight:bold;font-stretch:normal;font-size:6.70278px;line-height:0%;font-family:Impact;-inkscape-font-specification:'Impact Bold';letter-spacing:0.291042px;word-spacing:0.621771px;fill:#ffffff;fill-opacity:1;stroke:#000000;stroke-opacity:1"
             dx="17.530001">BRAZILIAN TOP TEAM - LAGO VISTA </textPath></text></g></g></g></svg>
